<svg width="45" height="142" viewBox="0 0 45 142" fill="none" xmlns="http://www.w3.org/2000/svg">
<path d="M36.2317 34.5682C36.8149 35.7437 37.9228 36.4843 39.5626 37.387C35.3161 38.033 33.0529 41.1068 29.7021 42.3628C31.4003 42.6044 32.5635 41.5772 33.9242 41.0491C34.6015 40.7909 35.5598 40.2012 35.9924 40.9482C36.577 41.9364 35.3435 42.1141 34.7428 42.4256C33.2145 43.1689 31.6397 43.8182 30.0707 44.4734C29.0544 44.8988 28.1313 45.5298 28.3238 46.673C28.5333 47.91 29.5059 47.0101 30.1692 47.027C30.3419 47.0329 30.5117 47.0723 30.669 47.1431C30.8262 47.2139 30.9678 47.3146 31.0857 47.4395C31.2035 47.5644 31.2953 47.711 31.3558 47.871C31.4163 48.0309 31.4443 48.2011 31.4383 48.3718C31.5266 49.2038 31.2587 50.1268 30.2384 50.3062C24.6615 51.4103 24.9448 56.0964 24.0965 60.0477C23.9426 60.7842 23.8894 61.539 23.7651 62.2816C23.6842 62.7845 23.2996 63.4783 23.499 63.7374C26.3614 67.384 23.3917 70.6571 22.8263 74.0368C22.277 76.8533 21.4622 79.6128 20.3924 82.279L21.9322 72.4666C20.1323 75.38 19.5734 78.6778 18.9619 81.8932C17.4177 89.996 16.1102 98.1416 14.7139 106.269C14.62 106.596 14.5951 106.939 14.6409 107.276C16.4884 114.199 13.4269 120.896 13.6754 127.76C13.7869 130.934 13.8805 134.126 13.8616 137.311C13.8494 138.501 13.3654 139.638 12.5137 140.479C11.6619 141.32 10.5105 141.796 9.30665 141.807C8.2819 141.799 8.31099 141.108 8.13229 140.475C7.42491 137.752 7.84357 134.963 7.77609 132.222C7.38545 116.997 7.753 101.777 8.63589 86.5609C8.82732 83.2837 9.17864 80.0135 9.4767 76.7371C9.55445 75.8829 9.41563 75.4544 8.55592 74.792C6.7895 73.4199 5.50771 71.4309 3.85547 69.8489C2.40914 68.45 1.84472 68.6622 0.977315 70.5056C-0.539415 69.0183 2.7286 67.7441 0.921262 66.3014C3.00174 66.9031 4.20124 68.8094 6.49131 69.12C5.73869 66.1223 2.57045 65.2369 1.42569 62.3884C4.09422 63.5451 6.46867 64.4301 7.90683 66.877C8.6071 62.9187 7.18403 60.0562 3.64707 57.8389C5.42907 57.2146 5.92757 58.6178 6.89363 58.5551C6.95405 58.4034 7.07968 58.2463 7.063 58.1056C6.81548 56.4233 4.81608 55.3012 5.91774 53.0439C6.43552 51.9765 4.88302 50.5182 4.06287 49.3409C3.97289 49.2488 3.90392 49.1388 3.86058 49.0181C3.81725 48.8975 3.80058 48.7691 3.81167 48.6416C3.82277 48.5141 3.86139 48.3904 3.92493 48.2789C3.98846 48.1674 4.07544 48.0706 4.18 47.9952C4.35813 47.8933 4.55714 47.8324 4.76232 47.8167C4.9675 47.8011 5.17362 47.8312 5.36546 47.9049C6.29128 48.4449 4.95218 48.4871 5.06713 48.9389C5.46852 50.6399 6.58055 51.6088 8.32207 52.3776C8.44054 50.101 6.41316 48.7679 6.59255 46.2751C9.66099 47.8037 10.3734 50.6372 11.8116 53.0782C12.4085 52.4974 12.6762 51.5978 12.1182 50.9845C10.5326 49.2157 12.4528 48.3407 12.9363 47.1091C13.007 47.006 13.1005 46.9201 13.2098 46.8581C13.3191 46.796 13.4413 46.7594 13.567 46.751C15.5111 46.6198 15.5051 46.6315 15.6026 44.7528C15.6737 43.237 15.6974 41.7149 15.8928 40.2117C15.9681 39.6678 15.9407 38.6254 16.9225 38.8204C17.65 38.9666 17.4186 39.7787 17.3312 40.3459C17.2439 40.9131 17.0437 41.5146 16.9858 42.0997C16.7434 44.3168 16.1045 46.484 17.2835 48.7414C18.0889 50.2876 17.6069 52.0871 16.6947 53.5905C16.1367 54.4995 16.1407 55.5066 15.8549 56.4529C15.1796 58.731 17.2231 58.7587 18.2848 59.3524C19.3464 59.9462 19.7223 58.8426 19.8356 57.9828C20.4018 53.7483 21.3471 49.5108 19.9348 45.2668C19.7207 44.6269 19.3534 43.8629 19.8257 43.3162C21.1893 41.6524 21.335 39.6745 21.4193 37.2279C22.8573 38.937 22.6348 40.8732 23.7485 42.3925C23.8213 39.8872 23.0805 37.6565 22.464 35.4327C23.4322 35.1007 23.169 36.1818 24.0758 36.1245C24.0877 34.6023 24.017 33.0326 24.1476 31.4821C24.2 30.8326 23.8056 29.7522 24.7549 29.5664C25.7041 29.3806 25.2488 30.7998 25.9864 31.1686C26.3924 30.0008 25.7368 28.9945 25.658 27.7058C27.3003 29.8029 26.9076 26.9895 27.7483 27.0488C29.1515 27.9028 28.695 29.4684 29.299 31.0071C29.6008 28.7728 29.9236 26.8784 29.4648 24.9427C29.3445 24.4207 29.0011 23.6451 29.926 23.5353C30.851 23.4254 31.1425 24.0307 31.0414 24.832C30.9337 25.7328 30.583 26.6376 31.3451 27.6682C32.2792 26.2966 32.6404 24.6211 32.3531 22.9921C32.0171 20.4953 31.1454 17.5786 33.5971 15.3905C33.6951 15.2538 33.7739 15.1048 33.8316 14.9473C34.3662 14.0089 33.5581 12.047 34.9911 12.1109C36.4242 12.1748 34.7312 14.2986 36.1517 15.2055C36.9256 13.2033 38.6245 11.8465 36.7027 9.12071C34.781 6.39489 35.4705 3.063 38.0394 0.278543L39.8255 2.93305C36.8978 3.09756 38.3888 4.85395 38.467 6.21289C39.1431 4.59635 41.3689 5.55636 42.1578 3.89973C43.2688 8.03609 38.9308 10.5491 39.2033 14.3452C40.1887 13.3224 40.4644 11.3925 42.2431 11.1897C42.9071 11.1188 43.7269 10.0596 44.2348 11.0179C44.7427 11.9762 45.3516 12.8943 44.7379 14.1074C44.5034 14.5622 42.1034 15.4217 44.7832 15.8935C44.7999 16.0414 44.7987 16.1907 44.7798 16.3384C43.3932 16.392 42.8411 18.8233 40.9786 17.6085C40.8109 17.4725 40.6141 17.3761 40.4031 17.3265C40.192 17.2769 39.9724 17.2755 39.7607 17.3224C39.5491 17.3693 39.351 17.4632 39.1816 17.5971C39.0122 17.7309 38.8759 17.9012 38.783 18.0949C37.4217 20.1421 36.4281 22.4062 35.8459 24.7876C35.7288 25.3721 35.4925 26.0494 36.0999 26.4113C36.8428 26.8563 37.115 26.1324 37.4503 25.6724C37.5521 25.5327 37.6833 25.4225 37.7851 25.2828C39.0723 23.5364 40.4754 23.641 42.0751 25.1348C40.5299 26.5279 37.9209 26.1035 36.6564 27.9672C37.9881 28.8734 39.8596 27.4067 40.6769 28.9529C41.1381 29.8231 39.991 30.3118 39.1712 30.5981C39.419 31.49 40.3562 30.5664 40.5758 31.2707C40.7955 31.975 40.1955 32.1869 39.7209 32.2769C38.1725 32.5693 37.5208 34.0982 36.1894 34.6733C35.6035 33.849 35.0074 34.3186 34.5005 34.7596C33.5644 35.531 32.6401 36.3201 31.5608 37.225C34.0162 37.6072 34.6797 35.3231 36.2317 34.5682ZM10.7472 83.972C13.422 77.4939 12.5631 71.4098 12.6691 65.4094C11.3498 71.2657 10.9539 77.2112 10.7472 83.972ZM11.6972 114.062C12.8634 108.087 12.1461 102.08 11.8375 96.0708C11.4413 102.057 11.0451 108.044 11.6675 114.062L11.6972 114.062ZM15.3022 81.7358L15.8106 81.8744C16.3746 77.9151 16.9505 73.9558 17.485 69.9904C17.548 69.5108 18.0107 68.6654 16.9919 68.6575C16.3225 68.6522 16.0865 69.2944 16.0459 69.944L15.3022 81.7358ZM10.0424 94.5755L9.60444 94.5311L9.48992 109.208L9.92825 109.212L10.0424 94.5755ZM16.598 67.5068C18.8772 66.9391 18.2934 65.0727 18.7478 63.7765C18.9356 63.2452 19.1782 62.5269 18.2728 62.4086C17.9722 62.3736 17.6693 62.4502 17.4227 62.6236C17.1762 62.7969 17.0036 63.0546 16.9385 63.3467C16.5128 64.6946 16.3866 66.1176 16.5683 67.5183L16.598 67.5068ZM14.1173 74.1621C13.387 76.5802 13.2113 79.1291 13.603 81.623C14.4428 79.2256 14.6204 76.6501 14.1173 74.1621ZM13.3152 94.9699L13.6771 94.8966L13.7558 84.8093L13.3945 84.8064L13.3152 94.9699ZM29.6714 37.9421C31.4089 36.1992 31.8585 33.9954 32.06 31.7019C30.738 33.5463 29.9157 35.6946 29.6714 37.9421ZM27.6641 37.8328C28.2888 37.1314 28.6676 36.2492 28.7441 35.3178C28.8624 34.5868 28.7511 34.422 27.8452 34.3623C26.9394 34.3025 26.9601 34.6832 26.9854 35.2338C27.0318 36.1182 26.8348 37.071 27.6641 37.8328ZM10.9449 62.4275C10.2903 64.3253 9.36295 66.2618 10.0413 68.9077C11.2202 66.6218 10.7037 64.4866 10.9449 62.4275ZM14.8578 63.5354L14.2364 63.4602L14.1889 69.5431C14.7354 67.5888 14.9612 65.5605 14.8578 63.5354Z" fill="#8B8D68"/>
</svg>
