<svg width="141" height="108" viewBox="0 0 141 108" fill="none" xmlns="http://www.w3.org/2000/svg">
<path d="M22.7222 6.25569C22.0757 6.50114 21.1829 6.90001 20.7519 7.20683C20.2593 7.51364 19.6744 7.63637 19.2434 7.54433C18.8124 7.4216 18.3506 7.51364 18.1043 7.7591C17.7041 8.18864 16.6265 8.0966 16.6265 7.66705C16.6265 7.51364 16.9344 7.32955 17.3346 7.26819C17.7041 7.20683 17.2115 7.11478 16.2571 7.0841C14.7794 7.05342 14.3792 7.17614 13.4864 7.88183C12.101 9.04773 11.7624 9.47728 11.0851 10.8886C9.82284 13.6193 10.0383 16.5034 11.6084 17.9761C12.6552 18.9273 12.3781 19.9398 10.5925 21.7193C8.12961 24.2352 8.12961 26.8125 10.5925 29.0523C12.0702 30.3716 13.8558 30.9852 16.2571 30.9852C17.1191 30.9852 18.1043 31.4455 20.2901 32.8261C21.8602 33.808 23.9536 34.8511 24.908 35.1273C27.2169 35.8023 28.3868 36.4159 29.8645 37.6432C31.4654 39.0239 33.8359 43.2886 35.0982 47.0932C35.6523 48.7807 36.2988 50.7443 36.5451 51.4193C36.853 52.3398 37.8997 53.6284 40.1163 55.8989C42.7331 58.5682 43.472 59.1511 44.4879 59.3352C47.351 59.8875 47.8436 60.5932 48.1822 64.8886C48.6748 71.3932 48.3362 75.4739 46.9816 78.6034L46.489 79.7693H28.2021H9.9152L8.56061 80.7818C7.82175 81.3341 6.92895 82.3773 6.52873 83.1443C5.85144 84.4943 5.82065 84.7398 5.91301 90.9989L6.00537 97.4727L6.92895 98.9455C7.45231 99.7739 8.34511 100.725 8.93004 101.093C10.0076 101.707 10.1615 101.707 70.5945 101.799C137.492 101.86 132.382 102.014 133.521 99.9273C134.014 99.0682 134.075 97.933 134.137 91.3057C134.229 84.0648 134.198 83.5739 133.583 82.3159C133.213 81.5796 132.628 80.8125 132.29 80.6284C131.92 80.4136 130.104 80.1682 128.226 80.0761L124.839 79.9227L124.963 77.8057C124.993 76.6091 125.147 75.3818 125.301 75.0443C125.424 74.7068 125.394 73.9091 125.24 73.2648C125.055 72.4057 125.117 71.8841 125.394 71.3932C126.04 70.3807 126.071 64.2443 125.455 63.0784C124.839 61.9125 124.87 60.9 125.609 58.7523C126.286 56.8193 127.241 55.5307 128.072 55.5307C128.688 55.5307 130.135 57.7398 130.566 59.3046C130.781 60.1023 130.781 61.5443 130.596 63.6C130.442 65.3182 130.35 67.4045 130.381 68.2023C130.412 69.2455 130.258 69.9205 129.858 70.4114C129.55 70.8102 129.303 71.3318 129.303 71.5773C129.303 72.4671 128.749 72.4057 128.38 71.5159C127.949 70.4727 126.933 69.4602 126.625 69.7364C126.533 69.8591 126.656 70.1966 126.902 70.4727C127.179 70.7796 127.61 71.5466 127.856 72.1909C128.134 72.8046 128.534 73.3261 128.749 73.3261C129.457 73.3261 130.75 71.3625 130.966 69.9511C131.089 69.1841 131.304 67.8648 131.458 67.0364C131.889 64.5511 131.797 60.7159 131.304 58.9057C130.535 56.2671 130.412 54.7943 130.873 53.9659C131.089 53.5671 131.274 52.3398 131.304 51.2352C131.335 50.1307 131.582 47.7375 131.859 45.8966C132.167 44.0557 132.382 41.7546 132.382 40.8034C132.382 39.8216 132.536 38.3182 132.69 37.3977C133.09 35.4034 132.598 28.7761 131.859 25.6159C131.335 23.4989 129.765 20.6761 128.287 19.2955C127.272 18.3443 124.439 16.9943 122.623 16.5955C119.698 15.9818 113.51 15.3375 110.678 15.3375C109.169 15.3375 105.752 15.5523 103.135 15.8284C95.3464 16.5648 82.17 16.7182 77.6752 16.1352C75.6126 15.8591 72.965 15.6443 71.7643 15.6443C69.7324 15.6443 68.3779 15.3989 60.6506 13.7727C57.7875 13.1591 54.7089 12.1466 52.1536 11.0114C51.4763 10.6739 50.799 10.4284 50.6759 10.4284C50.522 10.4284 48.8287 9.63069 46.8584 8.64887L43.318 6.90001H40.2086C37.8381 6.90001 36.6067 7.0841 34.975 7.60569C32.2351 8.49546 31.4346 8.46478 29.3104 7.39092C27.8634 6.65455 24.908 5.79546 24.0768 5.82614C23.9536 5.85683 23.3379 6.04092 22.7222 6.25569ZM26.5397 7.17614C27.4324 7.4216 28.7255 7.85114 29.372 8.12728L30.6034 8.64887L29.6183 9.41592C28.4792 10.275 28.3868 11.0421 29.0949 13.9568C29.7722 16.8409 28.787 19.9705 26.632 21.6886C26.0471 22.1489 25.5545 22.6705 25.5545 22.8239C25.5545 23.2227 27.9866 22.7625 28.7255 22.2409C29.0949 21.9955 29.6183 21.7807 29.9261 21.7807C30.3571 21.7807 30.4495 22.0261 30.3879 23.2841C30.3571 24.1432 30.4803 24.9716 30.665 25.1557C31.1576 25.6466 32.389 25.2477 33.5589 24.2046C34.113 23.683 34.6979 23.3455 34.8827 23.4068C35.7755 23.683 34.9442 26.9046 33.7436 27.8864C33.0355 28.4693 33.1279 29.7886 33.9591 30.6784C34.3593 31.108 34.9134 32.2125 35.2213 33.133C35.9294 35.3114 36.4835 35.8943 37.7765 35.8943H38.8233L38.7309 39.7909C38.6386 43.4727 38.7001 43.8102 39.4082 45.2523C39.87 46.1727 40.3626 46.7557 40.6089 46.6943C42.6407 46.2648 42.7947 46.2648 42.7947 46.7557C42.7947 47.3386 43.9953 50.9284 44.334 51.3886C45.4731 52.8614 46.3043 54.9784 46.489 56.8193C46.6429 58.7523 46.6121 58.9057 46.058 58.9057C44.8265 58.9057 42.5792 57.4943 40.4241 55.3466C38.1768 53.1375 36.9453 51.1432 36.9453 49.7011V48.9341L37.561 49.7011C37.9613 50.2534 38.2383 50.3761 38.4846 50.1307C38.7001 49.9159 38.577 48.8114 38.0844 46.4489C37.4071 43.258 37.3455 43.1046 36.6375 43.1966C36.2372 43.2273 35.8678 43.3193 35.8062 43.35C35.7755 43.4114 35.9294 44.1784 36.1757 45.0989C36.6067 46.725 36.7914 48.5966 36.422 47.5534C35.6215 45.3136 32.2966 38.8398 31.3731 37.7352C30.1108 36.2011 27.925 34.9739 25.0927 34.1761C24.0768 33.9 22.6914 33.3477 22.0141 32.9489C20.6287 32.1818 18.1351 29.758 18.72 29.758C18.9047 29.758 20.1362 30.0341 21.3984 30.4023C22.6606 30.7398 23.8305 30.9239 24.0152 30.8318C24.6309 30.4636 24.2923 30.0955 23.03 29.7273C22.2912 29.5432 21.1521 29.1136 20.5056 28.7761C19.5512 28.2852 19.151 28.2239 18.72 28.5C17.7348 29.1136 15.4875 28.9296 14.7794 28.1625C14.41 27.7636 14.2252 27.2727 14.3484 26.9966C14.9333 25.5852 15.1488 24.7875 14.9949 24.6341C14.9025 24.5421 13.8866 24.3886 12.7783 24.3273C11.67 24.2352 10.7156 24.0511 10.6233 23.9284C10.5617 23.8364 11.0543 23.1614 11.7316 22.4864C12.3781 21.8114 13.1477 20.7375 13.394 20.1239C13.9174 18.8966 14.0097 17.5773 13.5787 17.4239C13.394 17.3625 13.394 16.7796 13.5787 15.8898C13.825 14.7546 14.2252 14.1102 15.4875 12.9136C17.858 10.6739 21.6755 7.72842 22.8453 7.20683C24.1383 6.65455 24.5386 6.65455 26.5397 7.17614ZM13.8558 8.28069C13.8558 8.4341 13.7019 8.58751 13.5172 8.58751C13.3632 8.58751 13.3017 8.4341 13.394 8.28069C13.4864 8.0966 13.6403 7.97387 13.7327 7.97387C13.7942 7.97387 13.8558 8.0966 13.8558 8.28069ZM16.8728 8.61819C16.2879 8.98637 16.1032 8.95569 16.1032 8.46478C16.1032 8.21932 16.3495 8.12728 16.7189 8.21932C17.1499 8.34205 17.2115 8.4341 16.8728 8.61819ZM33.4357 10.7352C33.6204 10.7352 34.2362 11.1034 34.8211 11.533C35.6831 12.1773 36.0833 12.2693 37.0993 12.1159C38.3307 11.9318 39.8084 11.533 41.2246 10.9807C41.6248 10.8273 42.025 10.7966 42.1174 10.858C42.3329 11.1034 40.4857 11.8091 38.146 12.3921L36.1141 12.9136L34.2977 11.7171C33.2818 11.0421 32.2659 10.2443 32.0196 9.93751C31.7117 9.53864 31.8348 9.60001 32.3582 10.0296C32.7892 10.4284 33.2818 10.7352 33.4357 10.7352ZM47.9052 10.1523C48.1514 10.5511 43.8106 10.8273 43.1949 10.4591C42.7639 10.183 42.9486 10.1523 44.0569 10.3057C44.9805 10.4284 45.5654 10.3671 45.6886 10.1523C45.9348 9.7841 47.6589 9.7841 47.9052 10.1523ZM15.8569 11.0114C15.9493 11.1955 15.7338 11.4716 15.3643 11.6864C14.841 11.9625 14.6562 11.9318 14.4407 11.625C14.3176 11.4102 14.2868 11.1034 14.3484 10.9807C14.5639 10.6432 15.6414 10.6739 15.8569 11.0114ZM13.5479 12.7909C13.5479 12.9443 13.2709 13.3739 12.9322 13.8034C12.5936 14.233 12.3165 14.9386 12.3165 15.3989C12.3165 15.8591 12.1626 16.3193 11.9471 16.4421C11.5161 16.7182 11.8239 14.1102 12.3165 13.1898C12.6244 12.6068 13.5479 12.3307 13.5479 12.7909ZM34.2669 14.4784L33.9283 15.4909L33.8975 14.1102C33.8667 13.0977 33.9591 12.8523 34.2362 13.1284C34.4824 13.3739 34.4824 13.7421 34.2669 14.4784ZM124.993 19.4796C125.424 19.9705 125.301 20.0318 124.562 19.7557C124.285 19.6636 124.07 19.4489 124.07 19.2955C124.07 18.8659 124.562 18.958 124.993 19.4796ZM126.256 20.9216C126.594 21.5659 126.594 21.5966 126.132 21.1977C125.825 20.983 125.609 20.6761 125.609 20.5227C125.609 20.0625 125.886 20.2159 126.256 20.9216ZM35.6523 21.9648C36.0217 22.2102 36.3296 22.5784 36.3296 22.7625C36.3296 22.9466 36.0525 22.8546 35.7139 22.5477C35.3752 22.2409 34.8519 22.0875 34.4824 22.1796C33.9591 22.3023 33.8975 22.2716 34.2054 21.9034C34.6672 21.3511 34.7903 21.3511 35.6523 21.9648ZM12.2549 26.2296C12.2549 26.9046 12.101 26.9966 11.2082 26.9966C10.377 26.9966 10.1615 26.8739 10.1615 26.4136C10.1615 25.7693 10.5617 25.5239 11.5776 25.4932C12.0702 25.4625 12.2549 25.6466 12.2549 26.2296ZM13.394 27.3034C13.4864 27.4568 13.4248 27.6102 13.2709 27.6102C13.0862 27.6102 12.9322 27.4568 12.9322 27.3034C12.9322 27.1193 12.9938 26.9966 13.0554 26.9966C13.1477 26.9966 13.3017 27.1193 13.394 27.3034ZM13.1477 28.9909C13.6711 29.5432 13.3632 29.5739 12.0394 29.1136C11.5161 28.9296 11.0851 28.6227 11.0851 28.4693C11.0851 28.0398 12.5628 28.4386 13.1477 28.9909ZM35.2829 29.8193C35.5292 30.3102 35.6831 30.8011 35.6215 30.8625C35.4676 31.0159 34.1746 29.083 34.1746 28.7148C34.1746 28.2852 34.8211 28.8989 35.2829 29.8193ZM36.6375 33.1636C36.6375 33.3477 36.5143 33.3784 36.3296 33.2864C36.1757 33.1943 36.0217 32.9489 36.0217 32.7955C36.0217 32.6114 36.1757 32.5807 36.3296 32.6727C36.5143 32.7648 36.6375 33.0102 36.6375 33.1636ZM38.9772 34.2068C39.5314 34.6364 39.4698 34.6364 38.4846 34.483C37.13 34.2375 36.5451 33.7466 37.5918 33.7466C38.0228 33.7466 38.6386 33.9614 38.9772 34.2068ZM64.037 38.0421C64.037 38.1955 63.8215 38.3489 63.5752 38.3489C63.329 38.3489 63.1134 38.1955 63.1134 38.0421C63.1134 37.858 63.329 37.7352 63.5752 37.7352C63.8215 37.7352 64.037 37.858 64.037 38.0421ZM43.2565 44.4852C43.3488 44.6386 43.2257 44.7921 42.9794 44.7921C42.7023 44.7921 42.4868 44.6386 42.4868 44.4852C42.4868 44.3011 42.61 44.1784 42.7639 44.1784C42.9486 44.1784 43.1641 44.3011 43.2565 44.4852ZM100.949 48.9034C100.888 48.9648 99.5333 49.0875 97.9632 49.1489C96.3008 49.2409 95.2541 49.2102 95.5003 49.0568C95.8698 48.8114 101.227 48.658 100.949 48.9034ZM102.981 49.3943C103.228 49.7932 102.827 49.7932 102.212 49.3943C101.811 49.1489 101.811 49.0875 102.273 49.0875C102.55 49.0875 102.889 49.2102 102.981 49.3943ZM64.191 50.7443C65.053 51.0511 67.3927 51.358 69.6401 51.5114C71.7951 51.6341 73.6115 51.7875 73.7038 51.8796C73.7654 51.9409 73.8886 52.2784 73.9501 52.6159C74.0425 53.1682 73.827 53.2602 71.7335 53.4443C66.192 53.9966 63.9755 54.3341 62.9903 54.825C61.2355 55.6534 60.9584 55.3159 60.9584 52.3705C60.9584 50.9591 61.0508 49.7011 61.1739 49.6091C61.2663 49.4864 61.6665 49.5784 62.0359 49.8239C62.3746 50.0693 63.3597 50.4682 64.191 50.7443ZM94.6076 49.6091C94.392 49.6705 94.0226 49.6705 93.8379 49.6091C93.6224 49.5171 93.7763 49.4557 94.2073 49.4557C94.6383 49.4557 94.7923 49.5171 94.6076 49.6091ZM103.104 50.9898C103.505 51.2659 103.751 51.6341 103.659 51.7875C103.535 51.9409 102.119 52.0636 100.457 52.0943C97.132 52.1557 93.4069 52.8921 90.082 54.15C87.8654 54.9784 86.0798 56.2057 84.5713 57.8932C83.5246 59.0898 83.0012 59.1511 82.2624 58.2307C79.9842 55.3773 77.9523 53.8125 75.5818 53.0455C75.2431 52.9227 76.6901 52.8 78.8143 52.7693C82.9704 52.7386 83.0936 52.708 90.2051 51.2352C97.9017 49.6705 101.134 49.5784 103.104 50.9898ZM105.752 50.008C105.998 50.4068 105.29 50.4068 104.675 50.008C104.305 49.7625 104.336 49.7011 104.89 49.7011C105.26 49.7011 105.66 49.8239 105.752 50.008ZM73.1497 50.2534C72.9342 50.5909 65.7918 50.683 65.2685 50.3148C64.9606 50.1 66.1613 50.008 69.0551 50.008C71.3949 50.008 73.242 50.1307 73.1497 50.2534ZM89.8973 50.3148C89.651 50.4682 89.3124 50.6216 89.1276 50.6216C88.9737 50.6216 89.0353 50.4682 89.2816 50.3148C89.5279 50.1614 89.8973 50.008 90.0512 50.008C90.2359 50.008 90.1436 50.1614 89.8973 50.3148ZM91.6521 50.1921C91.5597 50.2841 91.2827 50.3148 91.0672 50.2227C90.8209 50.1307 90.9132 50.0386 91.2519 50.0386C91.5905 50.008 91.7752 50.1 91.6521 50.1921ZM75.12 50.8057C75.12 50.8671 74.8429 50.9284 74.5043 50.9284C74.1656 50.9284 73.8886 50.8057 73.8886 50.6523C73.8886 50.4989 74.1656 50.4375 74.5043 50.5296C74.8429 50.6216 75.12 50.7443 75.12 50.8057ZM87.9886 50.8364C87.6807 50.8977 87.1881 50.8977 86.911 50.8364C86.6032 50.7443 86.8495 50.683 87.4344 50.683C88.0193 50.683 88.2656 50.7443 87.9886 50.8364ZM85.4333 51.2352C84.6637 51.5727 76.6285 51.6034 76.1667 51.2966C75.9512 51.1739 78.1062 51.0511 80.9386 51.0511C83.8324 51.0205 85.772 51.1125 85.4333 51.2352ZM107.415 53.1989C107.846 53.6284 108.092 54.058 108.03 54.15C107.938 54.2114 107.322 53.7205 106.645 53.0455C105.998 52.3398 105.721 51.9102 106.06 52.0943C106.399 52.2784 107.014 52.7693 107.415 53.1989ZM126.779 53.3216C126.841 53.8739 126.717 54.5489 126.533 54.7636C126.317 55.0091 125.763 56.2057 125.301 57.433C124.347 59.8261 123.793 60.225 123.392 58.7523C122.992 57.3716 123.331 56.1443 124.562 54.6102C125.24 53.7818 125.578 53.0455 125.486 52.6773C125.394 52.2477 125.486 52.1557 126.009 52.2171C126.533 52.2784 126.717 52.5546 126.779 53.3216ZM103.043 53.3216C103.905 53.8739 104.028 55.1318 103.412 57.1261C103.104 58.1693 102.673 60.1636 102.458 61.5443C102.119 63.9375 102.119 64.0602 102.858 65.3795C103.289 66.1466 103.997 66.9136 104.521 67.1591C106.583 68.1102 107.168 69.583 105.906 70.7182C105.167 71.3932 103.289 74.9523 102.242 77.775L101.411 79.9227H80.8154C69.4554 79.9227 59.9425 79.8307 59.6654 79.708C59.2036 79.5239 59.2036 79.4011 59.727 78.0205C60.3427 76.425 60.8045 73.1114 61.2663 67.0364C61.4202 65.0114 61.7589 61.9125 61.9744 60.1636C62.3438 57.2182 62.4669 56.9114 63.3597 56.1136C64.899 54.733 67.0541 54.2727 72.2261 54.2114C77.3982 54.15 78.137 54.3648 79.6455 56.3591C81.0309 58.1693 82.5394 59.458 83.4938 59.6421C84.2634 59.7955 84.6021 59.5807 86.0798 58.1386C87.0034 57.2182 87.927 56.4511 88.1425 56.4511C88.3272 56.4511 89.2816 55.9909 90.2051 55.4693C91.1595 54.9171 93.1298 54.1807 94.6691 53.8125C97.4399 53.1682 102.335 52.8614 103.043 53.3216ZM128.688 53.5364C128.688 53.7818 128.565 53.9966 128.38 53.9966C128.226 53.9966 128.072 53.7818 128.072 53.5364C128.072 53.2909 128.226 53.0761 128.38 53.0761C128.565 53.0761 128.688 53.2909 128.688 53.5364ZM47.4126 55.2546C47.4126 55.4386 47.2894 55.4693 47.1047 55.3773C46.9508 55.2852 46.7969 55.0398 46.7969 54.8864C46.7969 54.7023 46.9508 54.6716 47.1047 54.7636C47.2894 54.8557 47.4126 55.1011 47.4126 55.2546ZM117.42 67.9261C118.744 69.7057 118.99 70.8102 118.99 74.8909C118.99 80.1682 119.082 80.0761 113.91 80.0761C109.539 80.0761 108.061 79.8921 108.061 79.3091C108.061 79.0943 108.554 78.2352 109.139 77.4375C111.355 74.3693 112.002 73.2034 112.71 70.933C113.572 68.2023 114.926 66.4841 116.035 66.7909C116.404 66.883 117.02 67.4045 117.42 67.9261ZM49.5676 70.9943C49.5676 71.0864 49.4445 71.2398 49.2597 71.3318C49.1058 71.4239 48.9519 71.3625 48.9519 71.2091C48.9519 71.025 49.1058 70.8716 49.2597 70.8716C49.4445 70.8716 49.5676 70.933 49.5676 70.9943ZM108.153 72.4364C109.847 73.5409 109.97 74.2466 108.831 75.8114C108.4 76.3943 107.784 77.3148 107.415 77.8364C106.676 79.0023 106.553 79.033 105.567 78.2966C105.167 77.9898 104.582 77.6523 104.305 77.5296C103.782 77.3455 103.782 77.2227 104.398 75.7193C104.767 74.8296 105.198 73.6636 105.383 73.1727C105.721 72.1602 106.183 71.4852 106.522 71.4852C106.614 71.4852 107.384 71.9148 108.153 72.4364ZM53.1696 72.8966C54.4934 73.9705 54.5241 74.0625 54.3394 75.2898C54.2471 75.9648 53.8776 77.2841 53.5082 78.1432C52.9541 79.5546 52.7693 79.7693 52.0305 79.7693C51.5379 79.7693 50.4604 79.4625 49.5984 79.0636C48.1207 78.4193 47.6589 77.8671 48.3054 77.4989C48.4285 77.4068 48.7364 76.3023 48.9211 75.0136C49.1982 73.2648 49.4752 72.5898 49.9678 72.2523C50.9838 71.5466 51.6918 71.7 53.1696 72.8966ZM58.7726 72.8966C59.4499 73.3875 59.4807 73.5716 59.3268 75.3511C59.0189 78.5727 58.4955 79.033 56.2174 78.0818C54.9552 77.5602 54.9859 77.6216 55.4477 75.4125C56.0634 72.5284 57.0794 71.7307 58.7726 72.8966ZM123.146 76.3943C123.577 76.6091 124.008 76.9466 124.131 77.1307C124.532 77.7136 124.408 79.2784 123.823 80.383C123.331 81.3648 123.208 81.4568 122.099 81.3648C121.422 81.3034 120.56 81.1193 120.129 80.9659C119.329 80.6591 119.329 80.9659 119.975 75.7193L120.16 74.2466L121.268 75.1364C121.884 75.5966 122.715 76.1796 123.146 76.3943ZM45.3807 80.8739C45.6578 80.9659 45.8733 81.2421 45.8733 81.4568C45.8733 82.0091 46.3351 82.1318 48.8903 82.1932C50.7067 82.2546 51.3224 82.1318 52.1844 81.6102C52.9848 81.1193 53.6621 80.9966 55.1707 81.0273C56.2482 81.058 66.5923 81.0886 78.1986 81.058C89.8049 81.058 100.857 81.15 102.766 81.2421C104.675 81.3648 106.553 81.3648 106.891 81.2114C107.261 81.0886 109.754 81.0273 112.494 81.058L117.451 81.15L117.358 82.5921L117.266 84.0648H118.898C122.069 84.0648 122.746 83.8193 123.67 82.3466L124.532 80.9966H127.795C132.505 80.9966 132.197 80.4443 132.32 89.9864C132.413 98.1171 132.32 98.7614 130.997 100.019L130.258 100.725L111.694 100.694C66.9925 100.664 46.4274 100.541 43.2565 100.295C41.4093 100.173 33.0971 99.8966 24.7848 99.7125C16.5034 99.5284 9.48419 99.2216 9.17633 99.0682C7.88332 98.3932 7.66782 97.2273 7.72939 91.4898C7.79096 83.1136 8.00646 82.1625 10.0076 81.058C10.6541 80.6898 44.4571 80.5057 45.3807 80.8739Z" fill="black"/>
<path d="M23.494 11.2561C23.2785 11.3174 23.0938 11.5936 23.0938 11.839C23.0938 12.1765 23.3093 12.2379 23.9558 12.0845C25.0641 11.8083 25.2796 11.6549 25.0948 11.3174C24.8793 11.0106 24.1097 10.9799 23.494 11.2561Z" fill="black"/>
<path d="M22.8757 14.7524C21.8598 15.0592 20.2281 16.716 20.4129 17.2989C20.5976 17.8205 21.5519 17.9126 21.5519 17.3603C21.5519 16.6546 23.0605 15.6421 24.138 15.6421C25.1539 15.6421 26.1083 15.2126 25.6773 14.9671C25.0308 14.5989 23.7993 14.5069 22.8757 14.7524Z" fill="black"/>
<path d="M23.211 17.0855C22.8724 17.3309 20.625 20.7366 20.625 21.0128C20.625 21.4423 21.487 21.0434 22.349 20.215C22.8724 19.6934 23.5189 19.2332 23.7344 19.2025C25.3045 18.8957 26.4743 17.9753 25.9818 17.4843C25.5816 17.0855 23.6112 16.8093 23.211 17.0855Z" fill="black"/>
<path d="M17.701 19.9407C17.2084 20.4316 16.9005 20.9225 16.9929 21.0452C17.4855 21.5054 20.1946 19.8486 19.856 19.2963C19.4866 18.7441 18.563 19.0202 17.701 19.9407Z" fill="black"/>
<path d="M26.9078 24.1437C26.3537 25.8926 26.015 26.3528 24.9375 26.9665C23.7368 27.6415 23.0903 28.5312 23.8292 28.5312C24.0447 28.5312 24.9067 28.1631 25.7071 27.7335C27.1541 26.9051 28.0161 25.6165 28.0161 24.2358C28.0161 23.4687 27.1541 23.4074 26.9078 24.1437Z" fill="black"/>
<path d="M27.6511 28.0696C27.4664 28.4992 27.1893 28.8367 27.0354 28.8367C26.9122 28.8367 26.7891 29.1128 26.7891 29.4503C26.7891 30.4321 27.5895 30.156 28.2976 28.9594C29.0672 27.6708 29.098 27.3026 28.4823 27.3026C28.2052 27.3026 27.8358 27.6401 27.6511 28.0696Z" fill="black"/>
<path d="M28.0156 32.4608C28.0156 32.6142 28.539 32.9824 29.2163 33.2585C30.7864 33.9642 33.0645 36.7255 33.5571 38.5051C33.9881 40.0085 34.573 40.1926 34.727 38.8733C34.9733 36.7562 30.9095 32.2153 28.7237 32.2153C28.3235 32.2153 28.0156 32.338 28.0156 32.4608Z" fill="black"/>
<path d="M49.416 85.969C48.5232 86.4906 48.1538 87.0736 47.3841 89.0372L46.7376 90.8168H45.2291C43.8745 90.8168 43.7206 90.7554 43.7206 90.1111C43.7514 89.7429 43.9361 88.8838 44.1824 88.2088C44.4287 87.5338 44.6442 86.8588 44.6442 86.7054C44.6442 86.3065 41.3809 86.7668 40.3341 87.2884C39.3798 87.7793 39.1027 88.3009 39.1027 89.6202C39.1027 90.2952 39.2566 90.5099 39.7184 90.5099C40.3957 90.5099 40.4881 90.2952 40.0571 89.6202C39.8724 89.344 39.8724 88.9452 40.0879 88.577C40.4265 87.902 42.4584 86.9815 42.797 87.3497C43.0741 87.6259 41.2577 93.9156 40.5189 95.3884C39.9339 96.4622 39.6876 96.5236 38.6717 95.8486C38.1483 95.5418 37.8713 95.4804 37.7173 95.7259C37.3787 96.2781 38.2099 96.9531 39.2566 96.9531C40.7959 96.9531 42.4276 95.0815 42.951 92.719C43.0433 92.1974 43.3204 91.7372 43.5667 91.7372C43.7822 91.7372 44.3363 91.6759 44.8289 91.5838C46.4298 91.277 46.6145 91.7065 45.9064 94.0997C45.537 95.2963 45.2599 96.3395 45.2599 96.4622C45.2599 96.5543 46.0911 96.6463 47.1379 96.6463C48.2769 96.6463 48.9234 96.5236 48.8003 96.3395C48.7079 96.1554 48.2769 96.0327 47.8459 96.0327C46.9224 96.0327 46.9224 95.7259 47.8459 92.1974C49.2929 86.7668 49.7239 86.0918 51.4171 86.7361C52.1252 87.0122 52.3407 86.9815 52.3407 86.7054C52.3407 85.6929 50.6475 85.2634 49.416 85.969Z" fill="black"/>
<path d="M60.5851 86.5513C58.2762 86.8888 57.5989 87.257 57.0755 88.5456C56.5829 89.6808 56.7061 90.2024 57.445 90.2024C57.722 90.2024 57.876 89.8649 57.876 89.0979C57.876 88.1467 57.9991 87.9626 58.9535 87.5638C59.9694 87.1342 61.2624 86.9808 61.2624 87.2876C61.2624 87.3797 60.6467 88.2388 59.9386 89.1899C59.1998 90.1717 57.9991 91.8592 57.2602 92.9638C55.2284 96.032 53.9353 97.2592 52.7347 97.2592C52.0266 97.2592 51.7188 97.4126 51.7188 97.7195C51.7188 98.0263 52.0266 98.1797 52.7655 98.1797C54.0585 98.1797 55.1976 97.2899 56.6445 95.1422C57.722 93.5467 58.4301 93.1479 59.7539 93.332C60.4312 93.424 60.4928 93.5467 60.4004 95.0195L60.3081 96.6456H61.8474C62.7401 96.6456 63.4174 96.4922 63.4174 96.3081C63.4174 96.1547 63.1096 96.032 62.7401 96.0933C61.7858 96.2161 61.7242 95.357 62.3091 91.2763C62.8633 87.7172 62.9249 86.1831 62.5862 86.2445C62.4323 86.2751 61.5395 86.3979 60.5851 86.5513ZM61.1085 90.724C60.7698 92.4729 60.7391 92.5036 59.6308 92.5956C59.015 92.657 58.4917 92.5956 58.4917 92.5036C58.4917 92.1967 61.0161 88.9751 61.2316 88.9751C61.3548 88.9751 61.2932 89.7729 61.1085 90.724Z" fill="black"/>
<path d="M71.7918 86.5769C70.5911 86.8223 70.4064 87.0064 69.8523 88.2644C69.1442 89.9519 69.2365 90.7803 70.0062 89.3383C70.8682 87.6814 71.6071 87.1292 72.9309 87.1292C74.1007 87.1292 75.1167 87.7121 75.1167 88.4178C75.1167 89.2769 74.0084 90.5042 73.054 90.6883C71.7302 90.9337 71.4224 91.4246 72.623 91.4246C73.1156 91.4246 73.7621 91.6394 74.0084 91.9155C75.0859 92.9587 74.2239 96.1189 72.6538 96.9473C71.33 97.653 70.1293 97.4383 69.2058 96.303C68.4669 95.4439 68.3438 95.3826 68.3438 95.9042C68.3438 96.7019 69.452 97.7451 70.5911 98.0212C71.6379 98.2973 73.8544 97.5303 74.7472 96.5485C75.7016 95.536 76.4097 93.603 76.1942 92.6826C76.1018 92.253 75.7016 91.6394 75.3322 91.3633L74.6549 90.8417L75.5169 90.0439C76.5328 89.0928 76.5636 88.3258 75.6708 87.3439C74.8396 86.4235 73.6082 86.2087 71.7918 86.5769Z" fill="black"/>
<path d="M84.6656 86.8224C84.0806 86.9759 83.2802 87.4668 82.9108 87.9577C81.4946 89.6759 81.2175 92.3145 82.3874 92.7747C82.8184 92.9281 82.8492 92.7747 82.6645 91.4554C82.4182 89.5838 83.0031 88.2952 84.3577 87.7429C84.8811 87.5281 85.3737 87.4361 85.466 87.4974C85.5276 87.5895 85.1889 89.3077 84.6656 91.302C83.9267 94.1247 83.5573 95.1065 82.9723 95.5668C82.5413 95.9349 82.2027 96.3031 82.2027 96.4259C82.2027 96.5486 83.1879 96.6406 84.3577 96.6406C85.5892 96.6406 86.5127 96.5179 86.5127 96.3338C86.5127 96.1497 86.1741 96.027 85.7431 96.027C84.7887 96.027 84.7579 95.5668 85.5584 92.9281C85.8662 91.8543 86.328 90.1974 86.5127 89.277C86.7282 88.3565 87.0361 87.4974 87.19 87.4054C87.3132 87.3134 88.0213 87.2827 88.7601 87.3134C89.8068 87.344 90.0839 87.4974 90.1455 88.019C90.3302 89.2463 91.1306 88.5099 91.1306 87.0986C91.1306 86.577 90.8844 86.5156 88.4523 86.5463C86.9437 86.577 85.2505 86.6997 84.6656 86.8224Z" fill="black"/>
<path d="M98.6706 86.8871C96.8234 87.8996 95.1302 90.3849 94.6992 92.7167C94.4221 94.2508 94.9454 96.2758 95.869 97.1962C97.3775 98.7303 100.641 98.086 101.564 96.0917C101.995 95.1712 101.718 95.2326 100.456 96.3371C99.1939 97.4417 98.2088 97.5031 97.0697 96.5212C96.2692 95.8462 96.2077 95.6008 96.2385 93.6678C96.2692 90.9371 97.1313 88.9735 98.7629 87.8996C99.6249 87.3474 100.302 87.1326 101.041 87.194C102.026 87.286 102.057 87.3474 102.149 88.7281C102.211 89.5565 102.365 90.2008 102.519 90.2008C102.796 90.2008 103.442 88.2985 103.442 87.5008C103.442 86.611 99.9636 86.1508 98.6706 86.8871Z" fill="black"/>
<path d="M50.3089 95.267C50.0626 96.2182 50.5244 96.8011 51.2633 96.525C51.9406 96.2795 51.7558 94.6841 51.0478 94.5614C50.6783 94.5 50.4628 94.7148 50.3089 95.267Z" fill="black"/>
<path d="M64.9948 94.8918C64.4099 95.4747 64.5638 96.6406 65.2411 96.6406C65.7952 96.6406 66.1955 96.0884 66.1955 95.2599C66.1955 94.7077 65.4258 94.4622 64.9948 94.8918Z" fill="black"/>
<path d="M77.5838 94.9581C77.0604 95.5717 77.3375 96.4922 78.0456 96.4922C78.4766 96.4922 78.6921 96.2467 78.7537 95.6945C78.8768 94.7433 78.1379 94.3138 77.5838 94.9581Z" fill="black"/>
<path d="M90.6367 95.2609C90.3596 95.9666 90.7598 96.703 91.3447 96.5803C91.6834 96.5189 91.9297 96.1507 91.9912 95.6291C92.0836 94.9541 91.9605 94.8007 91.4371 94.8007C91.0984 94.8007 90.729 95.0155 90.6367 95.2609Z" fill="black"/>
<path d="M103.262 95.2609C102.985 95.9666 103.385 96.703 103.97 96.5803C104.308 96.5189 104.555 96.1507 104.616 95.6291C104.709 94.9541 104.585 94.8007 104.062 94.8007C103.723 94.8007 103.354 95.0155 103.262 95.2609Z" fill="black"/>
</svg>
