<?xml version="1.0" encoding="UTF-8" standalone="no"?>
<!DOCTYPE svg PUBLIC "-//W3C//DTD SVG 1.1//EN" "http://www.w3.org/Graphics/SVG/1.1/DTD/svg11.dtd">
<svg xmlns="http://www.w3.org/2000/svg" version="1.1" viewBox="0.00 0.00 328.00 198.00">
<g stroke-width="2.00" fill="none" stroke-linecap="butt">
<path stroke="#808080" vector-effect="non-scaling-stroke" d="
  M 301.42 198.00
  Q 302.34 190.14 302.09 181.69
  C 302.05 180.53 302.50 179.19 302.50 178.25
  Q 302.49 170.77 302.51 163.30
  Q 302.51 163.01 302.66 162.72
  C 303.66 160.77 303.14 154.63 303.12 152.12
  C 303.11 150.51 302.26 149.48 301.70 148.02
  Q 301.51 147.54 301.10 147.24
  C 295.83 143.42 294.52 136.28 298.83 131.08
  Q 304.93 123.73 308.46 115.21
  Q 308.92 114.10 308.89 115.31
  L 308.35 136.72
  Q 308.28 139.47 310.49 137.83
  Q 311.16 137.33 311.70 136.55
  Q 312.24 135.78 312.56 136.66
  Q 313.27 138.58 314.42 140.28
  Q 315.75 142.24 316.20 139.92
  Q 318.92 125.82 320.55 112.40
  Q 320.57 112.26 320.62 112.16
  Q 320.69 112.05 320.75 111.93
  Q 320.84 111.78 320.86 111.59
  C 321.81 102.40 323.13 93.17 323.15 83.93
  C 323.16 81.60 323.99 78.35 323.61 76.25
  Q 322.88 72.19 323.19 68.03
  Q 323.22 67.57 322.98 67.17
  C 322.39 66.17 322.65 65.00 322.44 64.14
  Q 319.30 51.37 314.38 39.16
  C 310.91 30.55 299.41 32.74 292.18 33.06
  C 269.85 34.05 247.28 35.47 224.93 35.00
  C 223.31 34.97 221.88 35.59 220.23 35.59
  Q 193.79 35.59 167.35 35.62
  C 165.29 35.62 163.10 34.95 161.00 35.03
  C 152.88 35.37 145.74 34.81 138.35 32.03
  Q 136.21 31.23 129.06 27.23
  Q 117.13 20.56 103.69 17.64
  C 101.63 17.19 99.15 17.23 96.83 16.68
  Q 96.42 16.58 96.68 16.25
  C 98.26 14.28 98.99 10.26 96.24 8.81
  C 84.22 2.51 69.71 0.61 57.97 8.30
  A 3.04 3.04 0.0 0 1 54.73 8.36
  C 48.44 4.57 45.17 6.17 38.67 7.93
  A 1.70 1.69 -43.1 0 1 37.70 7.90
  Q 33.46 6.47 31.99 6.43
  C 24.31 6.20 19.82 14.73 17.97 21.89
  A 1.79 1.79 0.0 0 1 17.50 22.72
  Q 13.23 27.02 15.12 32.99
  Q 16.01 35.79 14.25 42.00
  C 13.37 45.09 9.68 45.58 8.26 47.73
  Q 7.27 49.23 6.96 52.24
  C 6.78 54.09 3.71 59.98 5.35 62.38
  Q 7.23 65.12 10.61 64.88
  A 1.17 1.13 -23.6 0 1 11.49 65.21
  C 12.65 66.36 13.10 67.99 14.10 68.97
  Q 16.81 71.60 19.50 71.93
  Q 25.26 72.64 30.96 73.68
  C 34.18 74.27 37.29 74.79 40.27 76.19
  Q 40.51 76.30 40.90 76.26
  A 1.86 1.81 51.8 0 1 41.72 76.37
  C 45.49 77.88 49.74 79.16 53.10 81.37
  C 61.26 86.73 66.11 96.91 68.76 106.00
  C 70.02 110.31 71.74 112.84 74.80 115.67
  Q 75.15 116.00 75.17 116.49
  Q 75.59 127.65 82.92 134.86
  Q 91.19 143.00 100.25 146.28
  C 106.19 148.43 107.15 151.45 107.13 157.75
  Q 107.12 163.65 107.12 169.55
  C 107.12 170.70 107.75 171.46 107.75 172.70
  Q 107.76 180.75 107.75 188.35
  A 3.25 3.23 70.1 0 1 106.61 190.80
  Q 103.41 193.52 102.18 198.00"
/>
<path stroke="#808080" vector-effect="non-scaling-stroke" d="
  M 288.51 198.00
  C 289.24 191.76 289.51 186.22 290.15 179.21
  Q 290.67 173.69 289.94 171.05
  C 289.12 168.02 289.44 165.04 285.68 164.05
  C 283.55 163.49 282.61 163.16 281.01 162.46
  A 2.13 2.11 -7.0 0 1 280.22 161.85
  C 278.76 160.00 274.73 160.46 273.07 161.79
  C 268.83 165.18 268.36 171.14 268.48 176.75
  Q 268.55 179.95 265.17 188.46
  Q 262.38 195.51 256.47 198.00"
/>
<path stroke="#808080" vector-effect="non-scaling-stroke" d="
  M 250.23 198.00
  Q 249.40 197.44 247.77 197.30
  A 1.15 1.14 19.2 0 1 246.91 195.53
  C 251.22 189.02 255.39 180.98 257.05 173.10
  C 258.05 168.36 255.61 166.04 251.24 164.69
  C 245.05 162.78 246.25 156.58 246.24 151.67
  C 246.24 142.15 250.08 131.26 254.14 122.81
  A 0.50 0.50 0.0 0 0 253.55 122.11
  Q 246.07 124.23 238.67 125.79
  Q 236.69 126.21 230.31 126.78
  Q 224.06 127.35 217.50 129.82
  Q 205.32 134.43 196.47 143.63
  A 1.15 1.15 0.0 0 1 194.67 143.44
  C 186.93 131.01 173.54 127.42 159.76 129.62
  Q 149.14 131.32 139.22 135.53
  Q 138.77 135.72 138.70 136.21
  C 137.19 147.09 135.36 158.14 135.35 169.14
  Q 135.35 171.02 136.18 175.51
  C 137.49 182.57 133.60 189.42 132.01 194.75
  Q 131.25 197.27 128.97 198.00"
/>
<path stroke="#3c2716" vector-effect="non-scaling-stroke" d="
  M 61.06 19.50
  Q 65.43 22.92 68.72 22.58
  Q 78.06 21.61 90.48 15.87
  C 91.80 15.26 92.80 14.33 93.79 13.35
  A 1.00 1.00 0.0 0 0 93.56 11.76
  Q 92.24 11.06 91.05 10.89
  Q 81.49 9.50 73.50 14.20
  Q 71.16 15.57 69.39 15.63
  Q 66.41 15.71 63.54 14.71
  Q 63.11 14.56 62.68 14.71
  L 60.07 15.59
  Q 59.56 15.76 59.21 16.18
  C 57.32 18.47 57.04 20.32 58.09 23.31
  C 60.57 30.34 59.37 38.08 57.16 44.87
  Q 56.76 46.11 57.77 45.28
  C 62.71 41.26 65.97 32.14 67.44 26.10
  Q 67.55 25.63 68.04 25.56
  Q 72.30 24.94 79.35 23.34
  C 85.56 21.94 93.17 20.07 96.31 14.27
  C 97.45 12.16 97.01 10.64 94.82 9.55
  C 88.58 6.45 83.88 5.53 78.90 4.60
  C 73.91 3.66 68.16 4.92 63.49 6.73
  C 61.56 7.47 59.57 9.02 57.32 9.83
  A 0.49 0.49 0.0 0 0 57.13 10.63
  L 60.05 13.75
  Q 60.47 14.20 61.05 14.00
  L 62.43 13.51
  A 0.69 0.54 -42.4 0 1 62.70 13.49
  L 69.92 14.68
  A 0.88 0.85 31.2 0 0 70.57 14.53
  Q 74.66 11.71 79.34 10.34
  C 82.96 9.29 91.20 8.78 94.56 10.80
  Q 94.97 11.04 95.14 11.50
  C 97.27 17.36 76.29 22.16 72.64 23.02
  C 67.57 24.21 64.09 23.82 60.48 20.30
  Q 60.34 20.16 60.44 20.00
  L 60.69 19.57
  Q 60.84 19.33 61.06 19.50"
/>
<path stroke="#808080" vector-effect="non-scaling-stroke" d="
  M 43.25 69.98
  Q 43.27 70.11 43.29 70.24
  Q 43.36 70.67 42.93 70.77
  Q 38.68 71.68 36.16 68.20
  Q 35.84 67.76 35.31 67.70
  C 31.19 67.17 28.35 69.26 25.10 69.33
  C 20.07 69.43 18.29 67.45 14.22 65.37
  Q 13.74 65.12 13.51 65.60
  A 0.46 0.44 -50.8 0 0 13.55 66.05
  C 15.62 68.95 17.88 70.59 21.67 71.02
  Q 30.36 72.00 36.24 73.51
  Q 46.22 76.08 52.00 79.24
  C 62.12 84.79 67.21 95.87 70.21 106.62
  C 71.06 109.68 72.86 111.46 74.68 113.85
  Q 75.04 114.33 75.18 113.74
  L 77.03 105.81
  Q 77.15 105.25 77.72 105.25
  L 78.21 105.24
  A 0.45 0.45 0.0 0 1 78.63 105.88
  C 70.98 123.19 82.97 135.86 97.04 143.49
  C 99.50 144.82 103.39 145.34 105.87 148.30
  A 0.32 0.32 0.0 0 0 106.43 148.16
  C 107.20 144.46 105.60 141.66 104.33 138.39
  C 103.43 136.07 103.57 134.00 106.38 133.38
  Q 106.98 133.25 106.61 132.77
  C 105.48 131.32 101.20 130.89 99.42 130.59
  Q 98.94 130.52 98.63 130.14
  C 92.23 122.52 93.27 115.00 93.15 106.65
  Q 93.14 106.13 92.66 106.32
  C 89.64 107.49 91.41 113.58 87.51 114.76
  C 82.68 116.23 83.34 107.51 83.36 105.02
  Q 83.37 104.45 82.89 104.16
  Q 81.70 103.44 80.32 103.28
  Q 79.83 103.22 79.76 102.75
  Q 79.38 100.32 79.58 98.75
  C 80.29 93.21 80.67 87.54 82.32 82.13
  A 1.02 1.01 13.9 0 0 81.53 80.83
  Q 80.46 80.64 79.93 81.97
  C 79.26 83.61 78.56 85.37 76.60 85.66
  C 71.56 86.41 74.21 73.30 68.52 72.16
  A 2.18 2.17 1.5 0 1 66.79 70.34
  C 66.27 66.71 66.53 63.86 68.28 60.42
  C 69.72 57.60 73.21 51.67 72.41 48.55
  A 1.19 1.19 0.0 0 0 70.27 48.18
  Q 67.58 52.14 64.27 55.25
  Q 62.54 56.89 61.26 56.22
  Q 59.03 55.07 59.60 46.89
  Q 59.66 46.07 58.98 46.54
  L 54.08 49.96
  Q 53.34 50.48 53.54 51.36
  Q 53.75 52.26 53.87 54.74
  C 54.01 57.83 50.08 60.68 47.40 62.50
  C 46.48 63.13 45.44 63.26 44.40 63.69
  A 0.57 0.56 71.6 0 1 43.63 63.30
  L 43.57 63.03
  Q 43.47 62.63 43.87 62.54
  C 47.03 61.83 48.48 59.69 50.78 58.08
  C 53.31 56.30 52.63 52.15 52.32 49.49
  Q 52.26 49.00 52.73 48.88
  C 55.83 48.06 57.06 41.07 57.66 38.34
  C 57.89 37.31 57.75 36.04 58.07 34.94
  C 60.29 27.26 52.94 21.41 58.61 14.72
  A 0.54 0.53 44.6 0 0 58.60 14.00
  L 55.13 10.15
  Q 54.75 9.72 54.24 9.48
  Q 53.18 8.96 51.28 7.94
  C 46.42 5.32 37.39 9.47 33.08 12.27
  C 29.26 14.74 21.96 20.22 18.18 23.94
  Q 14.20 27.86 16.51 33.36
  Q 16.68 33.75 17.02 33.98
  C 17.45 34.26 17.65 34.47 17.76 35.01
  Q 18.07 36.52 18.45 38.02
  Q 18.57 38.46 19.01 38.51
  L 19.49 38.58
  A 1.48 1.13 -41.8 0 1 19.00 41.11
  Q 17.37 41.56 16.38 40.35
  Q 15.93 39.81 15.82 40.50
  Q 15.03 45.30 10.63 47.13
  A 0.89 0.87 5.8 0 0 10.23 47.45
  L 8.40 50.09
  A 1.14 1.11 -27.9 0 0 8.21 50.68
  Q 8.18 54.74 6.50 58.40
  C 4.68 62.38 8.78 64.13 12.01 63.69
  Q 12.49 63.62 12.81 63.26
  Q 14.36 61.57 15.15 59.39
  A 1.00 0.99 38.1 0 0 15.04 58.52
  C 12.38 54.59 19.26 51.87 21.10 54.39
  C 22.70 56.59 18.57 58.60 16.80 59.07
  Q 16.29 59.21 16.18 59.73
  Q 15.75 61.86 14.25 63.42
  Q 13.85 63.84 14.39 64.07
  Q 16.45 64.94 18.33 66.18
  C 21.94 68.55 25.18 68.79 29.05 67.22
  C 31.44 66.25 33.15 66.47 35.54 66.49
  A 1.27 1.21 -20.5 0 1 36.41 66.86
  C 38.83 69.34 39.39 70.00 43.08 69.84
  Q 43.23 69.83 43.25 69.98"
/>
<path stroke="#3c2716" vector-effect="non-scaling-stroke" d="
  M 19.77 20.28
  Q 19.63 20.81 20.06 20.48
  C 25.14 16.58 29.75 12.69 35.81 9.24
  Q 36.13 9.06 35.82 8.86
  C 27.95 4.05 21.53 13.96 19.77 20.28"
/>
<path stroke="#2f1f12" vector-effect="non-scaling-stroke" d="
  M 268.43 140.04
  Q 267.80 140.03 267.96 138.96
  A 1.14 1.13 28.5 0 0 267.69 138.06
  C 266.88 137.13 267.16 136.28 266.71 135.34
  C 264.33 130.31 261.88 126.12 257.46 122.52
  A 1.50 1.49 36.9 0 0 255.28 122.83
  Q 254.17 124.44 253.96 126.29"
/>
<path stroke="#3c2716" vector-effect="non-scaling-stroke" d="
  M 253.96 126.29
  Q 248.21 139.48 247.38 148.88
  C 247.17 151.24 246.32 159.71 249.62 162.37
  C 252.93 165.05 256.77 163.76 258.26 168.85
  C 259.14 171.83 257.62 176.05 256.65 179.02
  Q 256.47 179.57 257.05 179.58
  L 262.01 179.64
  A 0.92 0.92 0.0 0 1 262.92 180.52
  Q 263.01 182.68 264.54 184.19
  A 0.50 0.50 0.0 0 0 265.35 184.02
  Q 267.43 178.95 267.38 173.43
  C 267.35 169.28 268.64 161.51 274.02 159.90"
/>
<path stroke="#2f1f12" vector-effect="non-scaling-stroke" d="
  M 274.02 159.90
  Q 275.70 159.94 277.19 159.40
  Q 277.67 159.22 277.35 158.83
  Q 270.96 151.07 268.55 140.94"
/>
<path stroke="#3c2716" vector-effect="non-scaling-stroke" d="
  M 268.55 140.94
  Q 269.17 141.98 269.52 143.05
  C 271.91 150.31 277.46 160.62 285.44 162.82
  C 289.67 163.98 289.85 165.68 290.81 169.51
  C 291.60 172.63 291.27 176.44 291.22 179.67
  C 291.19 181.76 290.32 184.37 290.72 186.97
  Q 290.80 187.48 291.30 187.37
  C 296.38 186.29 296.18 190.23 299.75 191.46
  Q 300.73 191.79 300.75 190.76
  Q 300.82 185.97 300.87 181.19
  C 300.88 179.89 301.57 178.56 301.54 177.50
  Q 301.30 166.31 301.62 162.36
  C 301.98 158.09 303.15 150.94 300.07 148.19
  C 292.33 141.30 294.63 134.80 299.93 127.65
  Q 307.69 117.19 310.59 104.53
  C 312.26 97.23 311.83 88.59 311.71 80.68
  C 311.70 79.87 311.23 79.00 311.24 78.25
  Q 311.29 73.56 311.21 68.86
  Q 311.21 68.36 311.02 67.90
  Q 310.75 67.22 310.64 65.76
  Q 310.06 57.90 305.61 50.05
  C 304.47 48.05 302.71 46.44 301.15 44.68
  Q 301.00 44.50 301.00 44.35
  Q 301.01 44.20 301.11 44.07
  Q 301.42 43.69 301.85 43.95
  C 308.21 47.83 311.32 59.81 311.89 66.69
  Q 311.90 66.84 311.98 66.99
  Q 312.05 67.14 312.13 67.28
  Q 312.25 67.51 312.25 67.75
  Q 312.28 72.64 312.24 77.54
  C 312.23 78.71 312.90 79.46 312.90 80.68
  C 312.85 89.88 313.66 99.38 310.87 108.46
  Q 310.13 110.87 310.20 113.65
  C 310.29 117.87 309.63 122.44 309.61 126.13
  Q 309.60 130.87 309.65 135.65
  Q 309.66 136.43 310.25 135.92
  L 311.06 135.22
  A 1.51 1.50 -33.7 0 1 313.39 135.68
  L 314.69 138.27
  Q 315.11 139.12 315.29 138.18
  C 317.88 124.55 319.61 110.90 321.35 97.14
  C 321.57 95.38 321.40 93.44 321.64 91.56
  C 322.06 88.15 322.00 85.61 322.00 82.52
  C 321.99 80.52 322.97 78.70 322.58 76.44
  Q 322.04 73.33 322.05 72.48
  C 322.11 62.49 317.56 50.62 313.50 40.48
  C 311.10 34.50 308.05 34.52 302.31 33.76
  Q 300.51 33.51 298.19 33.80
  C 294.83 34.22 291.44 34.00 288.08 34.40
  C 284.53 34.81 280.89 34.47 277.29 34.74
  C 267.41 35.47 257.41 35.44 247.50 35.80
  C 239.75 36.07 232.02 36.31 224.25 36.48
  C 223.06 36.51 222.15 36.88 221.07 36.88
  Q 193.08 36.70 165.10 36.75
  Q 164.61 36.76 164.15 36.59
  Q 163.84 36.47 163.49 36.46
  C 155.83 36.17 148.79 36.68 140.78 34.21
  C 134.98 32.43 129.41 28.91 123.77 26.01
  Q 110.95 19.40 96.58 17.88
  Q 96.08 17.83 95.65 18.12
  C 88.11 23.32 77.54 25.36 69.14 26.65
  Q 68.62 26.73 68.48 27.24
  Q 65.97 36.24 60.95 44.08
  Q 60.66 44.53 60.65 45.06
  C 60.61 48.11 60.11 51.91 61.46 54.69
  A 0.78 0.77 -33.5 0 0 62.67 54.93
  Q 66.04 51.99 68.13 48.82
  C 69.36 46.95 70.64 46.11 72.78 46.57
  Q 73.29 46.68 73.45 47.18
  C 75.79 54.35 66.42 60.74 67.81 69.17
  Q 67.89 69.67 68.27 69.99
  C 70.31 71.75 72.30 72.57 72.97 75.65
  Q 73.83 79.53 75.09 83.33
  A 1.46 1.46 0.0 0 0 77.64 83.76
  C 78.58 82.53 78.81 80.83 80.02 79.95
  Q 81.54 78.82 82.88 80.29
  A 2.21 2.21 0.0 0 1 83.39 82.25
  Q 81.24 91.56 80.55 101.10
  A 1.09 1.09 0.0 0 0 81.64 102.26
  C 84.66 102.24 84.29 105.56 84.31 107.53
  C 84.33 109.17 85.12 110.64 84.98 112.40
  A 1.19 1.19 0.0 0 0 86.41 113.65
  C 90.02 112.89 88.81 107.28 92.25 105.18
  A 1.30 1.30 0.0 0 1 94.23 106.31
  C 94.11 113.66 93.40 123.22 99.96 129.41
  A 1.37 1.36 -20.3 0 0 100.80 129.79
  C 102.96 129.99 106.89 130.32 108.16 132.31
  A 1.57 1.56 69.7 0 1 107.06 134.71
  Q 105.92 134.87 105.33 135.77
  Q 105.09 136.15 105.14 136.59
  Q 105.31 138.05 105.53 138.45
  Q 108.54 143.99 107.40 149.43
  Q 107.30 149.92 107.44 150.40
  C 107.74 151.44 108.22 152.29 108.22 153.40
  Q 108.24 159.68 108.24 165.95
  C 108.24 169.55 109.01 174.06 108.71 178.23
  A 0.22 0.22 0.0 0 0 109.09 178.39
  Q 111.53 175.44 115.24 176.74
  Q 115.83 176.94 116.11 177.49
  Q 118.38 181.83 123.26 181.79
  Q 123.87 181.78 123.89 181.17
  Q 124.21 173.61 124.16 166.06
  Q 124.11 158.59 124.83 154.49
  Q 125.88 148.45 127.94 143.24
  C 129.29 139.82 132.41 137.34 133.69 134.11
  Q 136.27 127.63 136.40 120.67
  Q 136.50 115.17 136.93 112.87
  Q 139.46 99.30 145.40 86.76
  A 0.34 0.33 28.6 0 1 145.88 86.62
  L 146.17 86.80
  A 0.59 0.59 0.0 0 1 146.39 87.55
  Q 139.74 101.97 137.36 117.69
  Q 137.15 119.07 138.50 118.72
  C 144.78 117.09 146.33 120.87 151.45 122.14
  Q 156.23 123.33 160.49 122.69
  C 165.29 121.97 170.74 121.25 173.55 125.21
  C 174.72 126.86 176.05 127.90 177.95 126.90
  C 182.94 124.26 186.45 125.97 191.25 127.13
  Q 193.81 127.75 203.05 126.36
  Q 210.31 125.26 221.49 121.77
  C 226.05 120.34 232.73 117.19 238.01 116.81
  Q 245.57 116.26 252.29 119.98
  C 255.65 121.83 258.45 121.28 261.10 124.89
  Q 265.41 130.75 267.86 137.60
  Q 268.53 139.47 268.43 140.04"
/>
<path stroke="#6b4628" vector-effect="non-scaling-stroke" d="
  M 268.55 140.94
  L 268.43 140.04"
/>
<path stroke="#6b4628" vector-effect="non-scaling-stroke" d="
  M 274.02 159.90
  Q 267.87 154.71 266.15 148.75
  C 265.12 145.17 264.18 141.53 262.41 138.32
  Q 258.90 131.94 253.96 126.29"
/>
<path stroke="#808080" vector-effect="non-scaling-stroke" d="
  M 215.86 124.68
  C 210.56 126.02 205.55 127.44 199.72 127.69
  Q 199.50 127.70 199.30 127.81
  Q 199.11 127.91 198.92 128.02
  Q 198.49 128.28 197.99 128.27
  Q 195.41 128.25 192.84 128.24
  C 189.28 128.22 185.83 126.95 182.18 126.53
  Q 181.68 126.48 181.25 126.75
  Q 179.88 127.62 177.50 128.18
  C 173.98 129.01 173.29 127.19 171.67 124.87
  Q 171.38 124.45 170.91 124.28
  C 166.38 122.58 162.10 123.88 158.50 123.91
  C 152.73 123.96 148.95 123.37 144.08 119.65
  A 0.93 0.92 -26.9 0 0 143.49 119.46
  L 138.62 119.58
  A 1.16 1.16 0.0 0 0 137.49 120.72
  Q 137.37 128.57 134.38 135.74
  Q 134.14 136.30 134.70 136.05
  Q 145.41 131.21 156.90 128.94
  C 161.90 127.95 167.25 128.25 172.48 128.25
  C 173.88 128.25 175.07 128.78 176.48 129.02
  C 184.48 130.40 191.03 135.20 195.40 142.06
  A 0.25 0.25 0.0 0 0 195.78 142.11
  C 204.24 134.26 214.25 128.43 225.86 126.09
  C 226.65 125.93 227.63 126.14 228.44 125.92
  Q 229.75 125.57 230.31 125.56
  C 237.47 125.45 244.74 123.24 251.63 121.41
  A 0.13 0.13 0.0 0 0 251.66 121.17
  Q 246.92 118.31 241.54 117.85
  Q 237.93 117.54 232.61 119.25
  C 227.02 121.06 221.47 123.25 215.86 124.68"
/>
<path stroke="#3c2716" vector-effect="non-scaling-stroke" d="
  M 127.71 179.27
  Q 130.24 178.90 131.67 179.44
  C 132.90 179.91 132.33 181.33 133.07 182.05
  Q 133.40 182.37 133.91 182.46
  Q 134.42 182.54 134.66 182.08
  Q 135.67 180.15 135.24 178.00
  Q 133.59 169.71 134.45 161.24
  Q 135.45 151.37 136.91 140.32"
/>
<path stroke="#2f1f12" vector-effect="non-scaling-stroke" d="
  M 136.91 140.32
  Q 137.56 138.99 137.62 136.26
  Q 137.64 135.83 137.24 136.02
  C 133.30 137.89 130.54 139.12 128.83 143.50
  Q 124.78 153.85 124.94 166.01
  Q 125.04 173.53 125.00 181.17
  Q 125.00 181.72 125.53 181.57
  Q 128.46 180.78 127.71 179.27"
/>
<path stroke="#6b4628" vector-effect="non-scaling-stroke" d="
  M 136.91 140.32
  Q 131.57 140.87 130.01 146.49
  Q 125.97 161.14 127.71 179.27"
/>
<path stroke="#808080" vector-effect="non-scaling-stroke" d="
  M 43.92 21.29
  L 44.64 22.10
  A 0.45 0.45 0.0 0 0 45.41 21.93
  Q 45.56 21.42 45.50 21.06
  Q 45.44 20.72 44.99 20.48
  Q 42.28 19.06 40.60 21.52
  A 0.40 0.39 -78.7 0 0 41.00 22.13
  Q 42.09 21.91 42.94 21.21
  A 0.72 0.72 0.0 0 1 43.92 21.29"
/>
<path stroke="#808080" vector-effect="non-scaling-stroke" d="
  M 43.59 27.67
  Q 44.11 28.10 44.78 28.22
  Q 45.39 28.33 45.46 27.72
  Q 45.56 26.88 44.79 26.64
  C 41.06 25.49 37.13 29.12 35.02 31.92
  A 0.51 0.50 -60.9 0 0 35.24 32.70
  L 35.52 32.81
  A 0.20 0.19 27.2 0 0 35.73 32.75
  Q 38.61 29.27 42.80 27.54
  Q 43.23 27.36 43.59 27.67"
/>
<path stroke="#808080" vector-effect="non-scaling-stroke" d="
  M 37.06 39.96
  L 35.76 40.39
  Q 34.50 40.80 35.24 41.89
  Q 36.07 43.12 37.04 43.22
  C 38.36 43.35 38.99 41.82 40.92 42.11
  Q 41.41 42.19 41.88 42.01
  C 43.96 41.23 48.32 38.21 47.57 35.53
  Q 47.34 34.70 46.47 34.63
  C 42.62 34.34 38.53 34.77 37.69 39.25
  Q 37.59 39.79 37.06 39.96"
/>
<path stroke="#808080" vector-effect="non-scaling-stroke" d="
  M 30.04 41.08
  Q 30.19 41.03 30.34 40.98
  Q 31.10 40.70 30.47 40.19
  Q 29.82 39.67 29.05 40.32
  Q 27.54 41.62 26.46 44.42
  Q 26.34 44.71 26.65 44.75
  L 27.33 44.84
  Q 27.51 44.86 27.60 44.71
  L 29.72 41.32
  Q 29.83 41.14 30.04 41.08"
/>
<path stroke="#808080" vector-effect="non-scaling-stroke" d="
  M 51.03 66.98
  C 52.49 64.80 52.56 62.99 55.41 62.13
  Q 55.73 62.04 55.74 61.70
  Q 55.75 61.59 55.77 61.40
  A 1.43 0.80 -29.0 0 0 53.63 61.39
  Q 50.97 63.79 49.95 66.50
  Q 49.78 66.98 50.27 67.20
  Q 50.74 67.40 51.03 66.98"
/>
<path stroke="#808080" vector-effect="non-scaling-stroke" d="
  M 54.97 77.13
  C 63.04 78.27 67.18 84.04 69.20 91.37
  Q 69.96 94.16 70.39 91.30
  Q 70.53 90.35 69.83 88.74
  Q 69.15 87.19 69.03 86.90
  Q 65.67 78.75 57.00 76.23
  Q 55.57 75.82 54.78 76.53
  Q 54.24 77.03 54.97 77.13"
/>
</g>
<path fill="#ffffff" d="
  M 0.00 0.00
  L 328.00 0.00
  L 328.00 198.00
  L 301.42 198.00
  Q 302.34 190.14 302.09 181.69
  C 302.05 180.53 302.50 179.19 302.50 178.25
  Q 302.49 170.77 302.51 163.30
  Q 302.51 163.01 302.66 162.72
  C 303.66 160.77 303.14 154.63 303.12 152.12
  C 303.11 150.51 302.26 149.48 301.70 148.02
  Q 301.51 147.54 301.10 147.24
  C 295.83 143.42 294.52 136.28 298.83 131.08
  Q 304.93 123.73 308.46 115.21
  Q 308.92 114.10 308.89 115.31
  L 308.35 136.72
  Q 308.28 139.47 310.49 137.83
  Q 311.16 137.33 311.70 136.55
  Q 312.24 135.78 312.56 136.66
  Q 313.27 138.58 314.42 140.28
  Q 315.75 142.24 316.20 139.92
  Q 318.92 125.82 320.55 112.40
  Q 320.57 112.26 320.62 112.16
  Q 320.69 112.05 320.75 111.93
  Q 320.84 111.78 320.86 111.59
  C 321.81 102.40 323.13 93.17 323.15 83.93
  C 323.16 81.60 323.99 78.35 323.61 76.25
  Q 322.88 72.19 323.19 68.03
  Q 323.22 67.57 322.98 67.17
  C 322.39 66.17 322.65 65.00 322.44 64.14
  Q 319.30 51.37 314.38 39.16
  C 310.91 30.55 299.41 32.74 292.18 33.06
  C 269.85 34.05 247.28 35.47 224.93 35.00
  C 223.31 34.97 221.88 35.59 220.23 35.59
  Q 193.79 35.59 167.35 35.62
  C 165.29 35.62 163.10 34.95 161.00 35.03
  C 152.88 35.37 145.74 34.81 138.35 32.03
  Q 136.21 31.23 129.06 27.23
  Q 117.13 20.56 103.69 17.64
  C 101.63 17.19 99.15 17.23 96.83 16.68
  Q 96.42 16.58 96.68 16.25
  C 98.26 14.28 98.99 10.26 96.24 8.81
  C 84.22 2.51 69.71 0.61 57.97 8.30
  A 3.04 3.04 0.0 0 1 54.73 8.36
  C 48.44 4.57 45.17 6.17 38.67 7.93
  A 1.70 1.69 -43.1 0 1 37.70 7.90
  Q 33.46 6.47 31.99 6.43
  C 24.31 6.20 19.82 14.73 17.97 21.89
  A 1.79 1.79 0.0 0 1 17.50 22.72
  Q 13.23 27.02 15.12 32.99
  Q 16.01 35.79 14.25 42.00
  C 13.37 45.09 9.68 45.58 8.26 47.73
  Q 7.27 49.23 6.96 52.24
  C 6.78 54.09 3.71 59.98 5.35 62.38
  Q 7.23 65.12 10.61 64.88
  A 1.17 1.13 -23.6 0 1 11.49 65.21
  C 12.65 66.36 13.10 67.99 14.10 68.97
  Q 16.81 71.60 19.50 71.93
  Q 25.26 72.64 30.96 73.68
  C 34.18 74.27 37.29 74.79 40.27 76.19
  Q 40.51 76.30 40.90 76.26
  A 1.86 1.81 51.8 0 1 41.72 76.37
  C 45.49 77.88 49.74 79.16 53.10 81.37
  C 61.26 86.73 66.11 96.91 68.76 106.00
  C 70.02 110.31 71.74 112.84 74.80 115.67
  Q 75.15 116.00 75.17 116.49
  Q 75.59 127.65 82.92 134.86
  Q 91.19 143.00 100.25 146.28
  C 106.19 148.43 107.15 151.45 107.13 157.75
  Q 107.12 163.65 107.12 169.55
  C 107.12 170.70 107.75 171.46 107.75 172.70
  Q 107.76 180.75 107.75 188.35
  A 3.25 3.23 70.1 0 1 106.61 190.80
  Q 103.41 193.52 102.18 198.00
  L 0.00 198.00
  L 0.00 0.00
  Z"
/>
<path fill="#000000" d="
  M 301.42 198.00
  L 288.51 198.00
  C 289.24 191.76 289.51 186.22 290.15 179.21
  Q 290.67 173.69 289.94 171.05
  C 289.12 168.02 289.44 165.04 285.68 164.05
  C 283.55 163.49 282.61 163.16 281.01 162.46
  A 2.13 2.11 -7.0 0 1 280.22 161.85
  C 278.76 160.00 274.73 160.46 273.07 161.79
  C 268.83 165.18 268.36 171.14 268.48 176.75
  Q 268.55 179.95 265.17 188.46
  Q 262.38 195.51 256.47 198.00
  L 250.23 198.00
  Q 249.40 197.44 247.77 197.30
  A 1.15 1.14 19.2 0 1 246.91 195.53
  C 251.22 189.02 255.39 180.98 257.05 173.10
  C 258.05 168.36 255.61 166.04 251.24 164.69
  C 245.05 162.78 246.25 156.58 246.24 151.67
  C 246.24 142.15 250.08 131.26 254.14 122.81
  A 0.50 0.50 0.0 0 0 253.55 122.11
  Q 246.07 124.23 238.67 125.79
  Q 236.69 126.21 230.31 126.78
  Q 224.06 127.35 217.50 129.82
  Q 205.32 134.43 196.47 143.63
  A 1.15 1.15 0.0 0 1 194.67 143.44
  C 186.93 131.01 173.54 127.42 159.76 129.62
  Q 149.14 131.32 139.22 135.53
  Q 138.77 135.72 138.70 136.21
  C 137.19 147.09 135.36 158.14 135.35 169.14
  Q 135.35 171.02 136.18 175.51
  C 137.49 182.57 133.60 189.42 132.01 194.75
  Q 131.25 197.27 128.97 198.00
  L 102.18 198.00
  Q 103.41 193.52 106.61 190.80
  A 3.25 3.23 70.1 0 0 107.75 188.35
  Q 107.76 180.75 107.75 172.70
  C 107.75 171.46 107.12 170.70 107.12 169.55
  Q 107.12 163.65 107.13 157.75
  C 107.15 151.45 106.19 148.43 100.25 146.28
  Q 91.19 143.00 82.92 134.86
  Q 75.59 127.65 75.17 116.49
  Q 75.15 116.00 74.80 115.67
  C 71.74 112.84 70.02 110.31 68.76 106.00
  C 66.11 96.91 61.26 86.73 53.10 81.37
  C 49.74 79.16 45.49 77.88 41.72 76.37
  A 1.86 1.81 51.8 0 0 40.90 76.26
  Q 40.51 76.30 40.27 76.19
  C 37.29 74.79 34.18 74.27 30.96 73.68
  Q 25.26 72.64 19.50 71.93
  Q 16.81 71.60 14.10 68.97
  C 13.10 67.99 12.65 66.36 11.49 65.21
  A 1.17 1.13 -23.6 0 0 10.61 64.88
  Q 7.23 65.12 5.35 62.38
  C 3.71 59.98 6.78 54.09 6.96 52.24
  Q 7.27 49.23 8.26 47.73
  C 9.68 45.58 13.37 45.09 14.25 42.00
  Q 16.01 35.79 15.12 32.99
  Q 13.23 27.02 17.50 22.72
  A 1.79 1.79 0.0 0 0 17.97 21.89
  C 19.82 14.73 24.31 6.20 31.99 6.43
  Q 33.46 6.47 37.70 7.90
  A 1.70 1.69 -43.1 0 0 38.67 7.93
  C 45.17 6.17 48.44 4.57 54.73 8.36
  A 3.04 3.04 0.0 0 0 57.97 8.30
  C 69.71 0.61 84.22 2.51 96.24 8.81
  C 98.99 10.26 98.26 14.28 96.68 16.25
  Q 96.42 16.58 96.83 16.68
  C 99.15 17.23 101.63 17.19 103.69 17.64
  Q 117.13 20.56 129.06 27.23
  Q 136.21 31.23 138.35 32.03
  C 145.74 34.81 152.88 35.37 161.00 35.03
  C 163.10 34.95 165.29 35.62 167.35 35.62
  Q 193.79 35.59 220.23 35.59
  C 221.88 35.59 223.31 34.97 224.93 35.00
  C 247.28 35.47 269.85 34.05 292.18 33.06
  C 299.41 32.74 310.91 30.55 314.38 39.16
  Q 319.30 51.37 322.44 64.14
  C 322.65 65.00 322.39 66.17 322.98 67.17
  Q 323.22 67.57 323.19 68.03
  Q 322.88 72.19 323.61 76.25
  C 323.99 78.35 323.16 81.60 323.15 83.93
  C 323.13 93.17 321.81 102.40 320.86 111.59
  Q 320.84 111.78 320.75 111.93
  Q 320.69 112.05 320.62 112.16
  Q 320.57 112.26 320.55 112.40
  Q 318.92 125.82 316.20 139.92
  Q 315.75 142.24 314.42 140.28
  Q 313.27 138.58 312.56 136.66
  Q 312.24 135.78 311.70 136.55
  Q 311.16 137.33 310.49 137.83
  Q 308.28 139.47 308.35 136.72
  L 308.89 115.31
  Q 308.92 114.10 308.46 115.21
  Q 304.93 123.73 298.83 131.08
  C 294.52 136.28 295.83 143.42 301.10 147.24
  Q 301.51 147.54 301.70 148.02
  C 302.26 149.48 303.11 150.51 303.12 152.12
  C 303.14 154.63 303.66 160.77 302.66 162.72
  Q 302.51 163.01 302.51 163.30
  Q 302.49 170.77 302.50 178.25
  C 302.50 179.19 302.05 180.53 302.09 181.69
  Q 302.34 190.14 301.42 198.00
  Z
  M 61.06 19.50
  Q 65.43 22.92 68.72 22.58
  Q 78.06 21.61 90.48 15.87
  C 91.80 15.26 92.80 14.33 93.79 13.35
  A 1.00 1.00 0.0 0 0 93.56 11.76
  Q 92.24 11.06 91.05 10.89
  Q 81.49 9.50 73.50 14.20
  Q 71.16 15.57 69.39 15.63
  Q 66.41 15.71 63.54 14.71
  Q 63.11 14.56 62.68 14.71
  L 60.07 15.59
  Q 59.56 15.76 59.21 16.18
  C 57.32 18.47 57.04 20.32 58.09 23.31
  C 60.57 30.34 59.37 38.08 57.16 44.87
  Q 56.76 46.11 57.77 45.28
  C 62.71 41.26 65.97 32.14 67.44 26.10
  Q 67.55 25.63 68.04 25.56
  Q 72.30 24.94 79.35 23.34
  C 85.56 21.94 93.17 20.07 96.31 14.27
  C 97.45 12.16 97.01 10.64 94.82 9.55
  C 88.58 6.45 83.88 5.53 78.90 4.60
  C 73.91 3.66 68.16 4.92 63.49 6.73
  C 61.56 7.47 59.57 9.02 57.32 9.83
  A 0.49 0.49 0.0 0 0 57.13 10.63
  L 60.05 13.75
  Q 60.47 14.20 61.05 14.00
  L 62.43 13.51
  A 0.69 0.54 -42.4 0 1 62.70 13.49
  L 69.92 14.68
  A 0.88 0.85 31.2 0 0 70.57 14.53
  Q 74.66 11.71 79.34 10.34
  C 82.96 9.29 91.20 8.78 94.56 10.80
  Q 94.97 11.04 95.14 11.50
  C 97.27 17.36 76.29 22.16 72.64 23.02
  C 67.57 24.21 64.09 23.82 60.48 20.30
  Q 60.34 20.16 60.44 20.00
  L 60.69 19.57
  Q 60.84 19.33 61.06 19.50
  Z
  M 43.25 69.98
  Q 43.27 70.11 43.29 70.24
  Q 43.36 70.67 42.93 70.77
  Q 38.68 71.68 36.16 68.20
  Q 35.84 67.76 35.31 67.70
  C 31.19 67.17 28.35 69.26 25.10 69.33
  C 20.07 69.43 18.29 67.45 14.22 65.37
  Q 13.74 65.12 13.51 65.60
  A 0.46 0.44 -50.8 0 0 13.55 66.05
  C 15.62 68.95 17.88 70.59 21.67 71.02
  Q 30.36 72.00 36.24 73.51
  Q 46.22 76.08 52.00 79.24
  C 62.12 84.79 67.21 95.87 70.21 106.62
  C 71.06 109.68 72.86 111.46 74.68 113.85
  Q 75.04 114.33 75.18 113.74
  L 77.03 105.81
  Q 77.15 105.25 77.72 105.25
  L 78.21 105.24
  A 0.45 0.45 0.0 0 1 78.63 105.88
  C 70.98 123.19 82.97 135.86 97.04 143.49
  C 99.50 144.82 103.39 145.34 105.87 148.30
  A 0.32 0.32 0.0 0 0 106.43 148.16
  C 107.20 144.46 105.60 141.66 104.33 138.39
  C 103.43 136.07 103.57 134.00 106.38 133.38
  Q 106.98 133.25 106.61 132.77
  C 105.48 131.32 101.20 130.89 99.42 130.59
  Q 98.94 130.52 98.63 130.14
  C 92.23 122.52 93.27 115.00 93.15 106.65
  Q 93.14 106.13 92.66 106.32
  C 89.64 107.49 91.41 113.58 87.51 114.76
  C 82.68 116.23 83.34 107.51 83.36 105.02
  Q 83.37 104.45 82.89 104.16
  Q 81.70 103.44 80.32 103.28
  Q 79.83 103.22 79.76 102.75
  Q 79.38 100.32 79.58 98.75
  C 80.29 93.21 80.67 87.54 82.32 82.13
  A 1.02 1.01 13.9 0 0 81.53 80.83
  Q 80.46 80.64 79.93 81.97
  C 79.26 83.61 78.56 85.37 76.60 85.66
  C 71.56 86.41 74.21 73.30 68.52 72.16
  A 2.18 2.17 1.5 0 1 66.79 70.34
  C 66.27 66.71 66.53 63.86 68.28 60.42
  C 69.72 57.60 73.21 51.67 72.41 48.55
  A 1.19 1.19 0.0 0 0 70.27 48.18
  Q 67.58 52.14 64.27 55.25
  Q 62.54 56.89 61.26 56.22
  Q 59.03 55.07 59.60 46.89
  Q 59.66 46.07 58.98 46.54
  L 54.08 49.96
  Q 53.34 50.48 53.54 51.36
  Q 53.75 52.26 53.87 54.74
  C 54.01 57.83 50.08 60.68 47.40 62.50
  C 46.48 63.13 45.44 63.26 44.40 63.69
  A 0.57 0.56 71.6 0 1 43.63 63.30
  L 43.57 63.03
  Q 43.47 62.63 43.87 62.54
  C 47.03 61.83 48.48 59.69 50.78 58.08
  C 53.31 56.30 52.63 52.15 52.32 49.49
  Q 52.26 49.00 52.73 48.88
  C 55.83 48.06 57.06 41.07 57.66 38.34
  C 57.89 37.31 57.75 36.04 58.07 34.94
  C 60.29 27.26 52.94 21.41 58.61 14.72
  A 0.54 0.53 44.6 0 0 58.60 14.00
  L 55.13 10.15
  Q 54.75 9.72 54.24 9.48
  Q 53.18 8.96 51.28 7.94
  C 46.42 5.32 37.39 9.47 33.08 12.27
  C 29.26 14.74 21.96 20.22 18.18 23.94
  Q 14.20 27.86 16.51 33.36
  Q 16.68 33.75 17.02 33.98
  C 17.45 34.26 17.65 34.47 17.76 35.01
  Q 18.07 36.52 18.45 38.02
  Q 18.57 38.46 19.01 38.51
  L 19.49 38.58
  A 1.48 1.13 -41.8 0 1 19.00 41.11
  Q 17.37 41.56 16.38 40.35
  Q 15.93 39.81 15.82 40.50
  Q 15.03 45.30 10.63 47.13
  A 0.89 0.87 5.8 0 0 10.23 47.45
  L 8.40 50.09
  A 1.14 1.11 -27.9 0 0 8.21 50.68
  Q 8.18 54.74 6.50 58.40
  C 4.68 62.38 8.78 64.13 12.01 63.69
  Q 12.49 63.62 12.81 63.26
  Q 14.36 61.57 15.15 59.39
  A 1.00 0.99 38.1 0 0 15.04 58.52
  C 12.38 54.59 19.26 51.87 21.10 54.39
  C 22.70 56.59 18.57 58.60 16.80 59.07
  Q 16.29 59.21 16.18 59.73
  Q 15.75 61.86 14.25 63.42
  Q 13.85 63.84 14.39 64.07
  Q 16.45 64.94 18.33 66.18
  C 21.94 68.55 25.18 68.79 29.05 67.22
  C 31.44 66.25 33.15 66.47 35.54 66.49
  A 1.27 1.21 -20.5 0 1 36.41 66.86
  C 38.83 69.34 39.39 70.00 43.08 69.84
  Q 43.23 69.83 43.25 69.98
  Z
  M 19.77 20.28
  Q 19.63 20.81 20.06 20.48
  C 25.14 16.58 29.75 12.69 35.81 9.24
  Q 36.13 9.06 35.82 8.86
  C 27.95 4.05 21.53 13.96 19.77 20.28
  Z
  M 268.43 140.04
  Q 267.80 140.03 267.96 138.96
  A 1.14 1.13 28.5 0 0 267.69 138.06
  C 266.88 137.13 267.16 136.28 266.71 135.34
  C 264.33 130.31 261.88 126.12 257.46 122.52
  A 1.50 1.49 36.9 0 0 255.28 122.83
  Q 254.17 124.44 253.96 126.29
  Q 248.21 139.48 247.38 148.88
  C 247.17 151.24 246.32 159.71 249.62 162.37
  C 252.93 165.05 256.77 163.76 258.26 168.85
  C 259.14 171.83 257.62 176.05 256.65 179.02
  Q 256.47 179.57 257.05 179.58
  L 262.01 179.64
  A 0.92 0.92 0.0 0 1 262.92 180.52
  Q 263.01 182.68 264.54 184.19
  A 0.50 0.50 0.0 0 0 265.35 184.02
  Q 267.43 178.95 267.38 173.43
  C 267.35 169.28 268.64 161.51 274.02 159.90
  Q 275.70 159.94 277.19 159.40
  Q 277.67 159.22 277.35 158.83
  Q 270.96 151.07 268.55 140.94
  Q 269.17 141.98 269.52 143.05
  C 271.91 150.31 277.46 160.62 285.44 162.82
  C 289.67 163.98 289.85 165.68 290.81 169.51
  C 291.60 172.63 291.27 176.44 291.22 179.67
  C 291.19 181.76 290.32 184.37 290.72 186.97
  Q 290.80 187.48 291.30 187.37
  C 296.38 186.29 296.18 190.23 299.75 191.46
  Q 300.73 191.79 300.75 190.76
  Q 300.82 185.97 300.87 181.19
  C 300.88 179.89 301.57 178.56 301.54 177.50
  Q 301.30 166.31 301.62 162.36
  C 301.98 158.09 303.15 150.94 300.07 148.19
  C 292.33 141.30 294.63 134.80 299.93 127.65
  Q 307.69 117.19 310.59 104.53
  C 312.26 97.23 311.83 88.59 311.71 80.68
  C 311.70 79.87 311.23 79.00 311.24 78.25
  Q 311.29 73.56 311.21 68.86
  Q 311.21 68.36 311.02 67.90
  Q 310.75 67.22 310.64 65.76
  Q 310.06 57.90 305.61 50.05
  C 304.47 48.05 302.71 46.44 301.15 44.68
  Q 301.00 44.50 301.00 44.35
  Q 301.01 44.20 301.11 44.07
  Q 301.42 43.69 301.85 43.95
  C 308.21 47.83 311.32 59.81 311.89 66.69
  Q 311.90 66.84 311.98 66.99
  Q 312.05 67.14 312.13 67.28
  Q 312.25 67.51 312.25 67.75
  Q 312.28 72.64 312.24 77.54
  C 312.23 78.71 312.90 79.46 312.90 80.68
  C 312.85 89.88 313.66 99.38 310.87 108.46
  Q 310.13 110.87 310.20 113.65
  C 310.29 117.87 309.63 122.44 309.61 126.13
  Q 309.60 130.87 309.65 135.65
  Q 309.66 136.43 310.25 135.92
  L 311.06 135.22
  A 1.51 1.50 -33.7 0 1 313.39 135.68
  L 314.69 138.27
  Q 315.11 139.12 315.29 138.18
  C 317.88 124.55 319.61 110.90 321.35 97.14
  C 321.57 95.38 321.40 93.44 321.64 91.56
  C 322.06 88.15 322.00 85.61 322.00 82.52
  C 321.99 80.52 322.97 78.70 322.58 76.44
  Q 322.04 73.33 322.05 72.48
  C 322.11 62.49 317.56 50.62 313.50 40.48
  C 311.10 34.50 308.05 34.52 302.31 33.76
  Q 300.51 33.51 298.19 33.80
  C 294.83 34.22 291.44 34.00 288.08 34.40
  C 284.53 34.81 280.89 34.47 277.29 34.74
  C 267.41 35.47 257.41 35.44 247.50 35.80
  C 239.75 36.07 232.02 36.31 224.25 36.48
  C 223.06 36.51 222.15 36.88 221.07 36.88
  Q 193.08 36.70 165.10 36.75
  Q 164.61 36.76 164.15 36.59
  Q 163.84 36.47 163.49 36.46
  C 155.83 36.17 148.79 36.68 140.78 34.21
  C 134.98 32.43 129.41 28.91 123.77 26.01
  Q 110.95 19.40 96.58 17.88
  Q 96.08 17.83 95.65 18.12
  C 88.11 23.32 77.54 25.36 69.14 26.65
  Q 68.62 26.73 68.48 27.24
  Q 65.97 36.24 60.95 44.08
  Q 60.66 44.53 60.65 45.06
  C 60.61 48.11 60.11 51.91 61.46 54.69
  A 0.78 0.77 -33.5 0 0 62.67 54.93
  Q 66.04 51.99 68.13 48.82
  C 69.36 46.95 70.64 46.11 72.78 46.57
  Q 73.29 46.68 73.45 47.18
  C 75.79 54.35 66.42 60.74 67.81 69.17
  Q 67.89 69.67 68.27 69.99
  C 70.31 71.75 72.30 72.57 72.97 75.65
  Q 73.83 79.53 75.09 83.33
  A 1.46 1.46 0.0 0 0 77.64 83.76
  C 78.58 82.53 78.81 80.83 80.02 79.95
  Q 81.54 78.82 82.88 80.29
  A 2.21 2.21 0.0 0 1 83.39 82.25
  Q 81.24 91.56 80.55 101.10
  A 1.09 1.09 0.0 0 0 81.64 102.26
  C 84.66 102.24 84.29 105.56 84.31 107.53
  C 84.33 109.17 85.12 110.64 84.98 112.40
  A 1.19 1.19 0.0 0 0 86.41 113.65
  C 90.02 112.89 88.81 107.28 92.25 105.18
  A 1.30 1.30 0.0 0 1 94.23 106.31
  C 94.11 113.66 93.40 123.22 99.96 129.41
  A 1.37 1.36 -20.3 0 0 100.80 129.79
  C 102.96 129.99 106.89 130.32 108.16 132.31
  A 1.57 1.56 69.7 0 1 107.06 134.71
  Q 105.92 134.87 105.33 135.77
  Q 105.09 136.15 105.14 136.59
  Q 105.31 138.05 105.53 138.45
  Q 108.54 143.99 107.40 149.43
  Q 107.30 149.92 107.44 150.40
  C 107.74 151.44 108.22 152.29 108.22 153.40
  Q 108.24 159.68 108.24 165.95
  C 108.24 169.55 109.01 174.06 108.71 178.23
  A 0.22 0.22 0.0 0 0 109.09 178.39
  Q 111.53 175.44 115.24 176.74
  Q 115.83 176.94 116.11 177.49
  Q 118.38 181.83 123.26 181.79
  Q 123.87 181.78 123.89 181.17
  Q 124.21 173.61 124.16 166.06
  Q 124.11 158.59 124.83 154.49
  Q 125.88 148.45 127.94 143.24
  C 129.29 139.82 132.41 137.34 133.69 134.11
  Q 136.27 127.63 136.40 120.67
  Q 136.50 115.17 136.93 112.87
  Q 139.46 99.30 145.40 86.76
  A 0.34 0.33 28.6 0 1 145.88 86.62
  L 146.17 86.80
  A 0.59 0.59 0.0 0 1 146.39 87.55
  Q 139.74 101.97 137.36 117.69
  Q 137.15 119.07 138.50 118.72
  C 144.78 117.09 146.33 120.87 151.45 122.14
  Q 156.23 123.33 160.49 122.69
  C 165.29 121.97 170.74 121.25 173.55 125.21
  C 174.72 126.86 176.05 127.90 177.95 126.90
  C 182.94 124.26 186.45 125.97 191.25 127.13
  Q 193.81 127.75 203.05 126.36
  Q 210.31 125.26 221.49 121.77
  C 226.05 120.34 232.73 117.19 238.01 116.81
  Q 245.57 116.26 252.29 119.98
  C 255.65 121.83 258.45 121.28 261.10 124.89
  Q 265.41 130.75 267.86 137.60
  Q 268.53 139.47 268.43 140.04
  Z
  M 215.86 124.68
  C 210.56 126.02 205.55 127.44 199.72 127.69
  Q 199.50 127.70 199.30 127.81
  Q 199.11 127.91 198.92 128.02
  Q 198.49 128.28 197.99 128.27
  Q 195.41 128.25 192.84 128.24
  C 189.28 128.22 185.83 126.95 182.18 126.53
  Q 181.68 126.48 181.25 126.75
  Q 179.88 127.62 177.50 128.18
  C 173.98 129.01 173.29 127.19 171.67 124.87
  Q 171.38 124.45 170.91 124.28
  C 166.38 122.58 162.10 123.88 158.50 123.91
  C 152.73 123.96 148.95 123.37 144.08 119.65
  A 0.93 0.92 -26.9 0 0 143.49 119.46
  L 138.62 119.58
  A 1.16 1.16 0.0 0 0 137.49 120.72
  Q 137.37 128.57 134.38 135.74
  Q 134.14 136.30 134.70 136.05
  Q 145.41 131.21 156.90 128.94
  C 161.90 127.95 167.25 128.25 172.48 128.25
  C 173.88 128.25 175.07 128.78 176.48 129.02
  C 184.48 130.40 191.03 135.20 195.40 142.06
  A 0.25 0.25 0.0 0 0 195.78 142.11
  C 204.24 134.26 214.25 128.43 225.86 126.09
  C 226.65 125.93 227.63 126.14 228.44 125.92
  Q 229.75 125.57 230.31 125.56
  C 237.47 125.45 244.74 123.24 251.63 121.41
  A 0.13 0.13 0.0 0 0 251.66 121.17
  Q 246.92 118.31 241.54 117.85
  Q 237.93 117.54 232.61 119.25
  C 227.02 121.06 221.47 123.25 215.86 124.68
  Z
  M 127.71 179.27
  Q 130.24 178.90 131.67 179.44
  C 132.90 179.91 132.33 181.33 133.07 182.05
  Q 133.40 182.37 133.91 182.46
  Q 134.42 182.54 134.66 182.08
  Q 135.67 180.15 135.24 178.00
  Q 133.59 169.71 134.45 161.24
  Q 135.45 151.37 136.91 140.32
  Q 137.56 138.99 137.62 136.26
  Q 137.64 135.83 137.24 136.02
  C 133.30 137.89 130.54 139.12 128.83 143.50
  Q 124.78 153.85 124.94 166.01
  Q 125.04 173.53 125.00 181.17
  Q 125.00 181.72 125.53 181.57
  Q 128.46 180.78 127.71 179.27
  Z"
/>
<path fill="#774e2b" d="
  M 61.06 19.50
  Q 60.84 19.33 60.69 19.57
  L 60.44 20.00
  Q 60.34 20.16 60.48 20.30
  C 64.09 23.82 67.57 24.21 72.64 23.02
  C 76.29 22.16 97.27 17.36 95.14 11.50
  Q 94.97 11.04 94.56 10.80
  C 91.20 8.78 82.96 9.29 79.34 10.34
  Q 74.66 11.71 70.57 14.53
  A 0.88 0.85 31.2 0 1 69.92 14.68
  L 62.70 13.49
  A 0.69 0.54 -42.4 0 0 62.43 13.51
  L 61.05 14.00
  Q 60.47 14.20 60.05 13.75
  L 57.13 10.63
  A 0.49 0.49 0.0 0 1 57.32 9.83
  C 59.57 9.02 61.56 7.47 63.49 6.73
  C 68.16 4.92 73.91 3.66 78.90 4.60
  C 83.88 5.53 88.58 6.45 94.82 9.55
  C 97.01 10.64 97.45 12.16 96.31 14.27
  C 93.17 20.07 85.56 21.94 79.35 23.34
  Q 72.30 24.94 68.04 25.56
  Q 67.55 25.63 67.44 26.10
  C 65.97 32.14 62.71 41.26 57.77 45.28
  Q 56.76 46.11 57.16 44.87
  C 59.37 38.08 60.57 30.34 58.09 23.31
  C 57.04 20.32 57.32 18.47 59.21 16.18
  Q 59.56 15.76 60.07 15.59
  L 62.68 14.71
  Q 63.11 14.56 63.54 14.71
  Q 66.41 15.71 69.39 15.63
  Q 71.16 15.57 73.50 14.20
  Q 81.49 9.50 91.05 10.89
  Q 92.24 11.06 93.56 11.76
  A 1.00 1.00 0.0 0 1 93.79 13.35
  C 92.80 14.33 91.80 15.26 90.48 15.87
  Q 78.06 21.61 68.72 22.58
  Q 65.43 22.92 61.06 19.50
  Z"
/>
<path fill="#ffffff" d="
  M 43.08 69.84
  C 39.39 70.00 38.83 69.34 36.41 66.86
  A 1.27 1.21 -20.5 0 0 35.54 66.49
  C 33.15 66.47 31.44 66.25 29.05 67.22
  C 25.18 68.79 21.94 68.55 18.33 66.18
  Q 16.45 64.94 14.39 64.07
  Q 13.85 63.84 14.25 63.42
  Q 15.75 61.86 16.18 59.73
  Q 16.29 59.21 16.80 59.07
  C 18.57 58.60 22.70 56.59 21.10 54.39
  C 19.26 51.87 12.38 54.59 15.04 58.52
  A 1.00 0.99 38.1 0 1 15.15 59.39
  Q 14.36 61.57 12.81 63.26
  Q 12.49 63.62 12.01 63.69
  C 8.78 64.13 4.68 62.38 6.50 58.40
  Q 8.18 54.74 8.21 50.68
  A 1.14 1.11 -27.9 0 1 8.40 50.09
  L 10.23 47.45
  A 0.89 0.87 5.8 0 1 10.63 47.13
  Q 15.03 45.30 15.82 40.50
  Q 15.93 39.81 16.38 40.35
  Q 17.37 41.56 19.00 41.11
  A 1.48 1.13 -41.8 0 0 19.49 38.58
  L 19.01 38.51
  Q 18.57 38.46 18.45 38.02
  Q 18.07 36.52 17.76 35.01
  C 17.65 34.47 17.45 34.26 17.02 33.98
  Q 16.68 33.75 16.51 33.36
  Q 14.20 27.86 18.18 23.94
  C 21.96 20.22 29.26 14.74 33.08 12.27
  C 37.39 9.47 46.42 5.32 51.28 7.94
  Q 53.18 8.96 54.24 9.48
  Q 54.75 9.72 55.13 10.15
  L 58.60 14.00
  A 0.54 0.53 44.6 0 1 58.61 14.72
  C 52.94 21.41 60.29 27.26 58.07 34.94
  C 57.75 36.04 57.89 37.31 57.66 38.34
  C 57.06 41.07 55.83 48.06 52.73 48.88
  Q 52.26 49.00 52.32 49.49
  C 52.63 52.15 53.31 56.30 50.78 58.08
  C 48.48 59.69 47.03 61.83 43.87 62.54
  Q 43.47 62.63 43.57 63.03
  L 43.63 63.30
  A 0.57 0.56 71.6 0 0 44.40 63.69
  C 45.44 63.26 46.48 63.13 47.40 62.50
  C 50.08 60.68 54.01 57.83 53.87 54.74
  Q 53.75 52.26 53.54 51.36
  Q 53.34 50.48 54.08 49.96
  L 58.98 46.54
  Q 59.66 46.07 59.60 46.89
  Q 59.03 55.07 61.26 56.22
  Q 62.54 56.89 64.27 55.25
  Q 67.58 52.14 70.27 48.18
  A 1.19 1.19 0.0 0 1 72.41 48.55
  C 73.21 51.67 69.72 57.60 68.28 60.42
  C 66.53 63.86 66.27 66.71 66.79 70.34
  A 2.18 2.17 1.5 0 0 68.52 72.16
  C 74.21 73.30 71.56 86.41 76.60 85.66
  C 78.56 85.37 79.26 83.61 79.93 81.97
  Q 80.46 80.64 81.53 80.83
  A 1.02 1.01 13.9 0 1 82.32 82.13
  C 80.67 87.54 80.29 93.21 79.58 98.75
  Q 79.38 100.32 79.76 102.75
  Q 79.83 103.22 80.32 103.28
  Q 81.70 103.44 82.89 104.16
  Q 83.37 104.45 83.36 105.02
  C 83.34 107.51 82.68 116.23 87.51 114.76
  C 91.41 113.58 89.64 107.49 92.66 106.32
  Q 93.14 106.13 93.15 106.65
  C 93.27 115.00 92.23 122.52 98.63 130.14
  Q 98.94 130.52 99.42 130.59
  C 101.20 130.89 105.48 131.32 106.61 132.77
  Q 106.98 133.25 106.38 133.38
  C 103.57 134.00 103.43 136.07 104.33 138.39
  C 105.60 141.66 107.20 144.46 106.43 148.16
  A 0.32 0.32 0.0 0 1 105.87 148.30
  C 103.39 145.34 99.50 144.82 97.04 143.49
  C 82.97 135.86 70.98 123.19 78.63 105.88
  A 0.45 0.45 0.0 0 0 78.21 105.24
  L 77.72 105.25
  Q 77.15 105.25 77.03 105.81
  L 75.18 113.74
  Q 75.04 114.33 74.68 113.85
  C 72.86 111.46 71.06 109.68 70.21 106.62
  C 67.21 95.87 62.12 84.79 52.00 79.24
  Q 46.22 76.08 36.24 73.51
  Q 30.36 72.00 21.67 71.02
  C 17.88 70.59 15.62 68.95 13.55 66.05
  A 0.46 0.44 -50.8 0 1 13.51 65.60
  Q 13.74 65.12 14.22 65.37
  C 18.29 67.45 20.07 69.43 25.10 69.33
  C 28.35 69.26 31.19 67.17 35.31 67.70
  Q 35.84 67.76 36.16 68.20
  Q 38.68 71.68 42.93 70.77
  Q 43.36 70.67 43.29 70.24
  Q 43.27 70.11 43.25 69.98
  Q 43.23 69.83 43.08 69.84
  Z
  M 43.92 21.29
  L 44.64 22.10
  A 0.45 0.45 0.0 0 0 45.41 21.93
  Q 45.56 21.42 45.50 21.06
  Q 45.44 20.72 44.99 20.48
  Q 42.28 19.06 40.60 21.52
  A 0.40 0.39 -78.7 0 0 41.00 22.13
  Q 42.09 21.91 42.94 21.21
  A 0.72 0.72 0.0 0 1 43.92 21.29
  Z
  M 43.59 27.67
  Q 44.11 28.10 44.78 28.22
  Q 45.39 28.33 45.46 27.72
  Q 45.56 26.88 44.79 26.64
  C 41.06 25.49 37.13 29.12 35.02 31.92
  A 0.51 0.50 -60.9 0 0 35.24 32.70
  L 35.52 32.81
  A 0.20 0.19 27.2 0 0 35.73 32.75
  Q 38.61 29.27 42.80 27.54
  Q 43.23 27.36 43.59 27.67
  Z
  M 37.06 39.96
  L 35.76 40.39
  Q 34.50 40.80 35.24 41.89
  Q 36.07 43.12 37.04 43.22
  C 38.36 43.35 38.99 41.82 40.92 42.11
  Q 41.41 42.19 41.88 42.01
  C 43.96 41.23 48.32 38.21 47.57 35.53
  Q 47.34 34.70 46.47 34.63
  C 42.62 34.34 38.53 34.77 37.69 39.25
  Q 37.59 39.79 37.06 39.96
  Z
  M 30.04 41.08
  Q 30.19 41.03 30.34 40.98
  Q 31.10 40.70 30.47 40.19
  Q 29.82 39.67 29.05 40.32
  Q 27.54 41.62 26.46 44.42
  Q 26.34 44.71 26.65 44.75
  L 27.33 44.84
  Q 27.51 44.86 27.60 44.71
  L 29.72 41.32
  Q 29.83 41.14 30.04 41.08
  Z
  M 51.03 66.98
  C 52.49 64.80 52.56 62.99 55.41 62.13
  Q 55.73 62.04 55.74 61.70
  Q 55.75 61.59 55.77 61.40
  A 1.43 0.80 -29.0 0 0 53.63 61.39
  Q 50.97 63.79 49.95 66.50
  Q 49.78 66.98 50.27 67.20
  Q 50.74 67.40 51.03 66.98
  Z
  M 54.97 77.13
  C 63.04 78.27 67.18 84.04 69.20 91.37
  Q 69.96 94.16 70.39 91.30
  Q 70.53 90.35 69.83 88.74
  Q 69.15 87.19 69.03 86.90
  Q 65.67 78.75 57.00 76.23
  Q 55.57 75.82 54.78 76.53
  Q 54.24 77.03 54.97 77.13
  Z"
/>
<path fill="#774e2b" d="
  M 19.77 20.28
  C 21.53 13.96 27.95 4.05 35.82 8.86
  Q 36.13 9.06 35.81 9.24
  C 29.75 12.69 25.14 16.58 20.06 20.48
  Q 19.63 20.81 19.77 20.28
  Z"
/>
<path fill="#774e2b" d="
  M 268.55 140.94
  L 268.43 140.04
  Q 268.53 139.47 267.86 137.60
  Q 265.41 130.75 261.10 124.89
  C 258.45 121.28 255.65 121.83 252.29 119.98
  Q 245.57 116.26 238.01 116.81
  C 232.73 117.19 226.05 120.34 221.49 121.77
  Q 210.31 125.26 203.05 126.36
  Q 193.81 127.75 191.25 127.13
  C 186.45 125.97 182.94 124.26 177.95 126.90
  C 176.05 127.90 174.72 126.86 173.55 125.21
  C 170.74 121.25 165.29 121.97 160.49 122.69
  Q 156.23 123.33 151.45 122.14
  C 146.33 120.87 144.78 117.09 138.50 118.72
  Q 137.15 119.07 137.36 117.69
  Q 139.74 101.97 146.39 87.55
  A 0.59 0.59 0.0 0 0 146.17 86.80
  L 145.88 86.62
  A 0.34 0.33 28.6 0 0 145.40 86.76
  Q 139.46 99.30 136.93 112.87
  Q 136.50 115.17 136.40 120.67
  Q 136.27 127.63 133.69 134.11
  C 132.41 137.34 129.29 139.82 127.94 143.24
  Q 125.88 148.45 124.83 154.49
  Q 124.11 158.59 124.16 166.06
  Q 124.21 173.61 123.89 181.17
  Q 123.87 181.78 123.26 181.79
  Q 118.38 181.83 116.11 177.49
  Q 115.83 176.94 115.24 176.74
  Q 111.53 175.44 109.09 178.39
  A 0.22 0.22 0.0 0 1 108.71 178.23
  C 109.01 174.06 108.24 169.55 108.24 165.95
  Q 108.24 159.68 108.22 153.40
  C 108.22 152.29 107.74 151.44 107.44 150.40
  Q 107.30 149.92 107.40 149.43
  Q 108.54 143.99 105.53 138.45
  Q 105.31 138.05 105.14 136.59
  Q 105.09 136.15 105.33 135.77
  Q 105.92 134.87 107.06 134.71
  A 1.57 1.56 69.7 0 0 108.16 132.31
  C 106.89 130.32 102.96 129.99 100.80 129.79
  A 1.37 1.36 -20.3 0 1 99.96 129.41
  C 93.40 123.22 94.11 113.66 94.23 106.31
  A 1.30 1.30 0.0 0 0 92.25 105.18
  C 88.81 107.28 90.02 112.89 86.41 113.65
  A 1.19 1.19 0.0 0 1 84.98 112.40
  C 85.12 110.64 84.33 109.17 84.31 107.53
  C 84.29 105.56 84.66 102.24 81.64 102.26
  A 1.09 1.09 0.0 0 1 80.55 101.10
  Q 81.24 91.56 83.39 82.25
  A 2.21 2.21 0.0 0 0 82.88 80.29
  Q 81.54 78.82 80.02 79.95
  C 78.81 80.83 78.58 82.53 77.64 83.76
  A 1.46 1.46 0.0 0 1 75.09 83.33
  Q 73.83 79.53 72.97 75.65
  C 72.30 72.57 70.31 71.75 68.27 69.99
  Q 67.89 69.67 67.81 69.17
  C 66.42 60.74 75.79 54.35 73.45 47.18
  Q 73.29 46.68 72.78 46.57
  C 70.64 46.11 69.36 46.95 68.13 48.82
  Q 66.04 51.99 62.67 54.93
  A 0.78 0.77 -33.5 0 1 61.46 54.69
  C 60.11 51.91 60.61 48.11 60.65 45.06
  Q 60.66 44.53 60.95 44.08
  Q 65.97 36.24 68.48 27.24
  Q 68.62 26.73 69.14 26.65
  C 77.54 25.36 88.11 23.32 95.65 18.12
  Q 96.08 17.83 96.58 17.88
  Q 110.95 19.40 123.77 26.01
  C 129.41 28.91 134.98 32.43 140.78 34.21
  C 148.79 36.68 155.83 36.17 163.49 36.46
  Q 163.84 36.47 164.15 36.59
  Q 164.61 36.76 165.10 36.75
  Q 193.08 36.70 221.07 36.88
  C 222.15 36.88 223.06 36.51 224.25 36.48
  C 232.02 36.31 239.75 36.07 247.50 35.80
  C 257.41 35.44 267.41 35.47 277.29 34.74
  C 280.89 34.47 284.53 34.81 288.08 34.40
  C 291.44 34.00 294.83 34.22 298.19 33.80
  Q 300.51 33.51 302.31 33.76
  C 308.05 34.52 311.10 34.50 313.50 40.48
  C 317.56 50.62 322.11 62.49 322.05 72.48
  Q 322.04 73.33 322.58 76.44
  C 322.97 78.70 321.99 80.52 322.00 82.52
  C 322.00 85.61 322.06 88.15 321.64 91.56
  C 321.40 93.44 321.57 95.38 321.35 97.14
  C 319.61 110.90 317.88 124.55 315.29 138.18
  Q 315.11 139.12 314.69 138.27
  L 313.39 135.68
  A 1.51 1.50 -33.7 0 0 311.06 135.22
  L 310.25 135.92
  Q 309.66 136.43 309.65 135.65
  Q 309.60 130.87 309.61 126.13
  C 309.63 122.44 310.29 117.87 310.20 113.65
  Q 310.13 110.87 310.87 108.46
  C 313.66 99.38 312.85 89.88 312.90 80.68
  C 312.90 79.46 312.23 78.71 312.24 77.54
  Q 312.28 72.64 312.25 67.75
  Q 312.25 67.51 312.13 67.28
  Q 312.05 67.14 311.98 66.99
  Q 311.90 66.84 311.89 66.69
  C 311.32 59.81 308.21 47.83 301.85 43.95
  Q 301.42 43.69 301.11 44.07
  Q 301.01 44.20 301.00 44.35
  Q 301.00 44.50 301.15 44.68
  C 302.71 46.44 304.47 48.05 305.61 50.05
  Q 310.06 57.90 310.64 65.76
  Q 310.75 67.22 311.02 67.90
  Q 311.21 68.36 311.21 68.86
  Q 311.29 73.56 311.24 78.25
  C 311.23 79.00 311.70 79.87 311.71 80.68
  C 311.83 88.59 312.26 97.23 310.59 104.53
  Q 307.69 117.19 299.93 127.65
  C 294.63 134.80 292.33 141.30 300.07 148.19
  C 303.15 150.94 301.98 158.09 301.62 162.36
  Q 301.30 166.31 301.54 177.50
  C 301.57 178.56 300.88 179.89 300.87 181.19
  Q 300.82 185.97 300.75 190.76
  Q 300.73 191.79 299.75 191.46
  C 296.18 190.23 296.38 186.29 291.30 187.37
  Q 290.80 187.48 290.72 186.97
  C 290.32 184.37 291.19 181.76 291.22 179.67
  C 291.27 176.44 291.60 172.63 290.81 169.51
  C 289.85 165.68 289.67 163.98 285.44 162.82
  C 277.46 160.62 271.91 150.31 269.52 143.05
  Q 269.17 141.98 268.55 140.94
  Z"
/>
<path fill="#000000" d="
  M 42.94 21.21
  Q 42.09 21.91 41.00 22.13
  A 0.40 0.39 -78.7 0 1 40.60 21.52
  Q 42.28 19.06 44.99 20.48
  Q 45.44 20.72 45.50 21.06
  Q 45.56 21.42 45.41 21.93
  A 0.45 0.45 0.0 0 1 44.64 22.10
  L 43.92 21.29
  A 0.72 0.72 0.0 0 0 42.94 21.21
  Z"
/>
<path fill="#000000" d="
  M 42.80 27.54
  Q 38.61 29.27 35.73 32.75
  A 0.20 0.19 27.2 0 1 35.52 32.81
  L 35.24 32.70
  A 0.51 0.50 -60.9 0 1 35.02 31.92
  C 37.13 29.12 41.06 25.49 44.79 26.64
  Q 45.56 26.88 45.46 27.72
  Q 45.39 28.33 44.78 28.22
  Q 44.11 28.10 43.59 27.67
  Q 43.23 27.36 42.80 27.54
  Z"
/>
<path fill="#000000" d="
  M 37.69 39.25
  C 38.53 34.77 42.62 34.34 46.47 34.63
  Q 47.34 34.70 47.57 35.53
  C 48.32 38.21 43.96 41.23 41.88 42.01
  Q 41.41 42.19 40.92 42.11
  C 38.99 41.82 38.36 43.35 37.04 43.22
  Q 36.07 43.12 35.24 41.89
  Q 34.50 40.80 35.76 40.39
  L 37.06 39.96
  Q 37.59 39.79 37.69 39.25
  Z"
/>
<path fill="#000000" d="
  M 29.72 41.32
  L 27.60 44.71
  Q 27.51 44.86 27.33 44.84
  L 26.65 44.75
  Q 26.34 44.71 26.46 44.42
  Q 27.54 41.62 29.05 40.32
  Q 29.82 39.67 30.47 40.19
  Q 31.10 40.70 30.34 40.98
  Q 30.19 41.03 30.04 41.08
  Q 29.83 41.14 29.72 41.32
  Z"
/>
<path fill="#000000" d="
  M 55.41 62.13
  C 52.56 62.99 52.49 64.80 51.03 66.98
  Q 50.74 67.40 50.27 67.20
  Q 49.78 66.98 49.95 66.50
  Q 50.97 63.79 53.63 61.39
  A 1.43 0.80 -29.0 0 1 55.77 61.40
  Q 55.75 61.59 55.74 61.70
  Q 55.73 62.04 55.41 62.13
  Z"
/>
<path fill="#000000" d="
  M 69.20 91.37
  C 67.18 84.04 63.04 78.27 54.97 77.13
  Q 54.24 77.03 54.78 76.53
  Q 55.57 75.82 57.00 76.23
  Q 65.67 78.75 69.03 86.90
  Q 69.15 87.19 69.83 88.74
  Q 70.53 90.35 70.39 91.30
  Q 69.96 94.16 69.20 91.37
  Z"
/>
<path fill="#ffffff" d="
  M 199.72 127.69
  C 205.55 127.44 210.56 126.02 215.86 124.68
  C 221.47 123.25 227.02 121.06 232.61 119.25
  Q 237.93 117.54 241.54 117.85
  Q 246.92 118.31 251.66 121.17
  A 0.13 0.13 0.0 0 1 251.63 121.41
  C 244.74 123.24 237.47 125.45 230.31 125.56
  Q 229.75 125.57 228.44 125.92
  C 227.63 126.14 226.65 125.93 225.86 126.09
  C 214.25 128.43 204.24 134.26 195.78 142.11
  A 0.25 0.25 0.0 0 1 195.40 142.06
  C 191.03 135.20 184.48 130.40 176.48 129.02
  C 175.07 128.78 173.88 128.25 172.48 128.25
  C 167.25 128.25 161.90 127.95 156.90 128.94
  Q 145.41 131.21 134.70 136.05
  Q 134.14 136.30 134.38 135.74
  Q 137.37 128.57 137.49 120.72
  A 1.16 1.16 0.0 0 1 138.62 119.58
  L 143.49 119.46
  A 0.93 0.92 -26.9 0 1 144.08 119.65
  C 148.95 123.37 152.73 123.96 158.50 123.91
  C 162.10 123.88 166.38 122.58 170.91 124.28
  Q 171.38 124.45 171.67 124.87
  C 173.29 127.19 173.98 129.01 177.50 128.18
  Q 179.88 127.62 181.25 126.75
  Q 181.68 126.48 182.18 126.53
  C 185.83 126.95 189.28 128.22 192.84 128.24
  Q 195.41 128.25 197.99 128.27
  Q 198.49 128.28 198.92 128.02
  Q 199.11 127.91 199.30 127.81
  Q 199.50 127.70 199.72 127.69
  Z"
/>
<path fill="#ffffff" d="
  M 250.23 198.00
  L 128.97 198.00
  Q 131.25 197.27 132.01 194.75
  C 133.60 189.42 137.49 182.57 136.18 175.51
  Q 135.35 171.02 135.35 169.14
  C 135.36 158.14 137.19 147.09 138.70 136.21
  Q 138.77 135.72 139.22 135.53
  Q 149.14 131.32 159.76 129.62
  C 173.54 127.42 186.93 131.01 194.67 143.44
  A 1.15 1.15 0.0 0 0 196.47 143.63
  Q 205.32 134.43 217.50 129.82
  Q 224.06 127.35 230.31 126.78
  Q 236.69 126.21 238.67 125.79
  Q 246.07 124.23 253.55 122.11
  A 0.50 0.50 0.0 0 1 254.14 122.81
  C 250.08 131.26 246.24 142.15 246.24 151.67
  C 246.25 156.58 245.05 162.78 251.24 164.69
  C 255.61 166.04 258.05 168.36 257.05 173.10
  C 255.39 180.98 251.22 189.02 246.91 195.53
  A 1.15 1.14 19.2 0 0 247.77 197.30
  Q 249.40 197.44 250.23 198.00
  Z"
/>
<path fill="#5e3d24" d="
  M 268.43 140.04
  L 268.55 140.94
  Q 270.96 151.07 277.35 158.83
  Q 277.67 159.22 277.19 159.40
  Q 275.70 159.94 274.02 159.90
  Q 267.87 154.71 266.15 148.75
  C 265.12 145.17 264.18 141.53 262.41 138.32
  Q 258.90 131.94 253.96 126.29
  Q 254.17 124.44 255.28 122.83
  A 1.50 1.49 36.9 0 1 257.46 122.52
  C 261.88 126.12 264.33 130.31 266.71 135.34
  C 267.16 136.28 266.88 137.13 267.69 138.06
  A 1.14 1.13 28.5 0 1 267.96 138.96
  Q 267.80 140.03 268.43 140.04
  Z"
/>
<path fill="#774e2b" d="
  M 253.96 126.29
  Q 258.90 131.94 262.41 138.32
  C 264.18 141.53 265.12 145.17 266.15 148.75
  Q 267.87 154.71 274.02 159.90
  C 268.64 161.51 267.35 169.28 267.38 173.43
  Q 267.43 178.95 265.35 184.02
  A 0.50 0.50 0.0 0 1 264.54 184.19
  Q 263.01 182.68 262.92 180.52
  A 0.92 0.92 0.0 0 0 262.01 179.64
  L 257.05 179.58
  Q 256.47 179.57 256.65 179.02
  C 257.62 176.05 259.14 171.83 258.26 168.85
  C 256.77 163.76 252.93 165.05 249.62 162.37
  C 246.32 159.71 247.17 151.24 247.38 148.88
  Q 248.21 139.48 253.96 126.29
  Z"
/>
<path fill="#5e3d24" d="
  M 136.91 140.32
  Q 131.57 140.87 130.01 146.49
  Q 125.97 161.14 127.71 179.27
  Q 128.46 180.78 125.53 181.57
  Q 125.00 181.72 125.00 181.17
  Q 125.04 173.53 124.94 166.01
  Q 124.78 153.85 128.83 143.50
  C 130.54 139.12 133.30 137.89 137.24 136.02
  Q 137.64 135.83 137.62 136.26
  Q 137.56 138.99 136.91 140.32
  Z"
/>
<path fill="#774e2b" d="
  M 136.91 140.32
  Q 135.45 151.37 134.45 161.24
  Q 133.59 169.71 135.24 178.00
  Q 135.67 180.15 134.66 182.08
  Q 134.42 182.54 133.91 182.46
  Q 133.40 182.37 133.07 182.05
  C 132.33 181.33 132.90 179.91 131.67 179.44
  Q 130.24 178.90 127.71 179.27
  Q 125.97 161.14 130.01 146.49
  Q 131.57 140.87 136.91 140.32
  Z"
/>
<path fill="#ffffff" d="
  M 288.51 198.00
  L 256.47 198.00
  Q 262.38 195.51 265.17 188.46
  Q 268.55 179.95 268.48 176.75
  C 268.36 171.14 268.83 165.18 273.07 161.79
  C 274.73 160.46 278.76 160.00 280.22 161.85
  A 2.13 2.11 -7.0 0 0 281.01 162.46
  C 282.61 163.16 283.55 163.49 285.68 164.05
  C 289.44 165.04 289.12 168.02 289.94 171.05
  Q 290.67 173.69 290.15 179.21
  C 289.51 186.22 289.24 191.76 288.51 198.00
  Z"
/>
</svg>
